<svg id="ev20a2pgqbaf1" xmlns="http://www.w3.org/2000/svg" xmlns:xlink="http://www.w3.org/1999/xlink" viewBox="0 0 830.180000 738.080000" shape-rendering="geometricPrecision" text-rendering="geometricPrecision"><style><![CDATA[#ev20a2pgqbaf40_tr {animation: ev20a2pgqbaf40_tr__tr 1600ms linear infinite normal forwards}@keyframes ev20a2pgqbaf40_tr__tr { 0% {transform: translate(544.158563px,487.045343px) rotate(0deg)} 50% {transform: translate(544.158563px,487.045343px) rotate(5deg)} 100% {transform: translate(544.158563px,487.045343px) rotate(0deg)} }]]></style><defs><linearGradient id="ev20a2pgqbaf8-fill" x1="392.670029" y1="667.520000" x2="371.300029" y2="587.990000" spreadMethod="pad" gradientUnits="userSpaceOnUse"><stop id="ev20a2pgqbaf8-fill-0" offset="0%" stop-color="rgb(203,192,223)"/><stop id="ev20a2pgqbaf8-fill-1" offset="100%" stop-color="rgb(231,220,237)"/></linearGradient><linearGradient id="ev20a2pgqbaf9-fill" x1="396.760029" y1="674.720000" x2="396.760029" y2="588.200000" spreadMethod="pad" gradientUnits="userSpaceOnUse"><stop id="ev20a2pgqbaf9-fill-0" offset="0%" stop-color="rgb(151,106,173)"/><stop id="ev20a2pgqbaf9-fill-1" offset="100%" stop-color="rgb(205,236,252)"/></linearGradient><linearGradient id="ev20a2pgqbaf10-fill" x1="477.674242" y1="166.477761" x2="532.025863" y2="79.598238" spreadMethod="pad" gradientUnits="userSpaceOnUse"><stop id="ev20a2pgqbaf10-fill-0" offset="0%" stop-color="rgb(124,203,181)"/><stop id="ev20a2pgqbaf10-fill-1" offset="100%" stop-color="rgb(92,202,234)"/></linearGradient><linearGradient id="ev20a2pgqbaf11-fill" x1="524.935991" y1="145.158187" x2="571.332165" y2="70.995221" spreadMethod="pad" gradientUnits="userSpaceOnUse"><stop id="ev20a2pgqbaf11-fill-0" offset="0%" stop-color="rgb(184,172,212)"/><stop id="ev20a2pgqbaf11-fill-1" offset="100%" stop-color="rgb(224,209,231)"/></linearGradient><linearGradient id="ev20a2pgqbaf12-fill" x1="476.148869" y1="388.614522" x2="685.796575" y2="131.445202" spreadMethod="pad" gradientUnits="userSpaceOnUse"><stop id="ev20a2pgqbaf12-fill-0" offset="0%" stop-color="rgb(203,192,223)"/><stop id="ev20a2pgqbaf12-fill-1" offset="100%" stop-color="rgb(231,220,237)"/></linearGradient><linearGradient id="ev20a2pgqbaf13-fill" x1="412.940725" y1="300.874654" x2="642.042232" y2="444.200008" spreadMethod="pad" gradientUnits="userSpaceOnUse"><stop id="ev20a2pgqbaf13-fill-0" offset="0%" stop-color="rgb(126,119,184)"/><stop id="ev20a2pgqbaf13-fill-1" offset="100%" stop-color="rgb(150,138,194)"/></linearGradient><linearGradient id="ev20a2pgqbaf14-fill" x1="494.997452" y1="391.783534" x2="608.999024" y2="209.555259" spreadMethod="pad" gradientUnits="userSpaceOnUse"><stop id="ev20a2pgqbaf14-fill-0" offset="0%" stop-color="rgb(151,106,173)"/><stop id="ev20a2pgqbaf14-fill-1" offset="100%" stop-color="rgb(205,236,252)"/></linearGradient><linearGradient id="ev20a2pgqbaf15-fill" x1="512.137464" y1="397.080288" x2="545.285164" y2="344.094630" spreadMethod="pad" gradientUnits="userSpaceOnUse"><stop id="ev20a2pgqbaf15-fill-0" offset="0%" stop-color="rgb(144,163,211)"/><stop id="ev20a2pgqbaf15-fill-1" offset="100%" stop-color="rgb(116,95,169)"/></linearGradient><linearGradient id="ev20a2pgqbaf16-fill" x1="525.023719" y1="378.002118" x2="546.378119" y2="343.046117" spreadMethod="pad" gradientUnits="userSpaceOnUse"><stop id="ev20a2pgqbaf16-fill-0" offset="0%" stop-color="rgb(93,78,161)"/><stop id="ev20a2pgqbaf16-fill-1" offset="100%" stop-color="rgb(109,75,150)"/></linearGradient><linearGradient id="ev20a2pgqbaf18-fill" x1="486.457548" y1="311.668398" x2="618.645274" y2="100.370072" spreadMethod="pad" gradientUnits="userSpaceOnUse"><stop id="ev20a2pgqbaf18-fill-0" offset="0%" stop-color="rgb(35,102,177)"/><stop id="ev20a2pgqbaf18-fill-1" offset="100%" stop-color="rgb(44,45,114)"/></linearGradient><linearGradient id="ev20a2pgqbaf19-fill" x1="700.721795" y1="309.055561" x2="760.721573" y2="151.353819" spreadMethod="pad" gradientUnits="userSpaceOnUse"><stop id="ev20a2pgqbaf19-fill-0" offset="0%" stop-color="rgb(184,172,212)"/><stop id="ev20a2pgqbaf19-fill-1" offset="100%" stop-color="rgb(224,209,231)"/></linearGradient><linearGradient id="ev20a2pgqbaf20-fill" x1="715.076712" y1="307.658826" x2="772.519752" y2="156.677143" spreadMethod="pad" gradientUnits="userSpaceOnUse"><stop id="ev20a2pgqbaf20-fill-0" offset="0%" stop-color="rgb(184,158,203)"/><stop id="ev20a2pgqbaf20-fill-1" offset="100%" stop-color="rgb(150,138,194)"/></linearGradient><linearGradient id="ev20a2pgqbaf21-fill" x1="725.044027" y1="315.741451" x2="781.349159" y2="167.750614" spreadMethod="pad" gradientUnits="userSpaceOnUse"><stop id="ev20a2pgqbaf21-fill-0" offset="0%" stop-color="rgb(124,203,181)"/><stop id="ev20a2pgqbaf21-fill-1" offset="100%" stop-color="rgb(92,202,234)"/></linearGradient><linearGradient id="ev20a2pgqbaf22-fill" x1="502.968590" y1="93.350888" x2="684.561037" y2="206.954688" spreadMethod="pad" gradientUnits="userSpaceOnUse"><stop id="ev20a2pgqbaf22-fill-0" offset="0%" stop-color="rgb(1,1,1)"/><stop id="ev20a2pgqbaf22-fill-1" offset="100%" stop-color="rgb(117,148,204)"/></linearGradient><linearGradient id="ev20a2pgqbaf23-fill" x1="422.431759" y1="247.031894" x2="555.506299" y2="330.283007" spreadMethod="pad" gradientUnits="userSpaceOnUse"><stop id="ev20a2pgqbaf23-fill-0" offset="0%" stop-color="rgb(1,1,1)"/><stop id="ev20a2pgqbaf23-fill-1" offset="100%" stop-color="rgb(117,148,204)"/></linearGradient><linearGradient id="ev20a2pgqbaf24-fill" x1="392.409031" y1="228.237952" x2="446.654580" y2="141.527982" spreadMethod="pad" gradientUnits="userSpaceOnUse"><stop id="ev20a2pgqbaf24-fill-0" offset="0%" stop-color="rgb(1,1,1)"/><stop id="ev20a2pgqbaf24-fill-1" offset="100%" stop-color="rgb(117,148,204)"/></linearGradient><linearGradient id="ev20a2pgqbaf25-fill" x1="724.050502" y1="309.831907" x2="740.493279" y2="266.614171" spreadMethod="pad" gradientUnits="userSpaceOnUse"><stop id="ev20a2pgqbaf25-fill-0" offset="0%" stop-color="rgb(214,224,242)"/><stop id="ev20a2pgqbaf25-fill-1" offset="100%" stop-color="rgb(1,1,1)"/></linearGradient><linearGradient id="ev20a2pgqbaf26-fill" x1="732.288027" y1="180.080542" x2="816.966376" y2="212.297574" spreadMethod="pad" gradientUnits="userSpaceOnUse"><stop id="ev20a2pgqbaf26-fill-0" offset="0%" stop-color="rgb(1,1,1)"/><stop id="ev20a2pgqbaf26-fill-1" offset="100%" stop-color="rgb(214,224,242)"/></linearGradient><linearGradient id="ev20a2pgqbaf28-fill" x1="479.730566" y1="663.731469" x2="491.122161" y2="349.849866" spreadMethod="pad" gradientUnits="userSpaceOnUse"><stop id="ev20a2pgqbaf28-fill-0" offset="0%" stop-color="rgb(203,192,223)"/><stop id="ev20a2pgqbaf28-fill-1" offset="100%" stop-color="rgb(231,220,237)"/></linearGradient><linearGradient id="ev20a2pgqbaf29-fill" x1="538.989101" y1="657.811072" x2="516.923286" y2="409.589921" spreadMethod="pad" gradientUnits="userSpaceOnUse"><stop id="ev20a2pgqbaf29-fill-0" offset="0%" stop-color="rgb(151,106,173)"/><stop id="ev20a2pgqbaf29-fill-1" offset="100%" stop-color="rgb(205,236,252)"/></linearGradient><linearGradient id="ev20a2pgqbaf30-fill" x1="384.027509" y1="564.926700" x2="498.657509" y2="554.227898" spreadMethod="pad" gradientUnits="userSpaceOnUse"><stop id="ev20a2pgqbaf30-fill-0" offset="0%" stop-color="rgb(184,158,203)"/><stop id="ev20a2pgqbaf30-fill-1" offset="100%" stop-color="rgb(150,138,194)"/></linearGradient><linearGradient id="ev20a2pgqbaf31-fill" x1="0.546833" y1="0.932089" x2="0.478666" y2="0.098502" spreadMethod="pad" gradientUnits="objectBoundingBox"><stop id="ev20a2pgqbaf31-fill-0" offset="0%" stop-color="rgb(149,183,192)"/><stop id="ev20a2pgqbaf31-fill-1" offset="99%" stop-color="rgb(149,221,241)"/></linearGradient><linearGradient id="ev20a2pgqbaf32-fill" x1="481.362763" y1="399.980941" x2="476.981477" y2="350.695296" spreadMethod="pad" gradientUnits="userSpaceOnUse"><stop id="ev20a2pgqbaf32-fill-0" offset="0%" stop-color="rgb(144,163,211)"/><stop id="ev20a2pgqbaf32-fill-1" offset="100%" stop-color="rgb(116,95,169)"/></linearGradient><linearGradient id="ev20a2pgqbaf33-fill" x1="385.163609" y1="510.659499" x2="480.271109" y2="501.782798" spreadMethod="pad" gradientUnits="userSpaceOnUse"><stop id="ev20a2pgqbaf33-fill-0" offset="0%" stop-color="rgb(1,1,1)"/><stop id="ev20a2pgqbaf33-fill-1" offset="100%" stop-color="rgb(214,224,242)"/></linearGradient><linearGradient id="ev20a2pgqbaf34-fill" x1="450.623310" y1="652.361199" x2="449.304809" y2="637.711199" spreadMethod="pad" gradientUnits="userSpaceOnUse"><stop id="ev20a2pgqbaf34-fill-0" offset="0%" stop-color="rgb(214,224,242)"/><stop id="ev20a2pgqbaf34-fill-1" offset="100%" stop-color="rgb(1,1,1)"/></linearGradient><linearGradient id="ev20a2pgqbaf35-fill" x1="521.210029" y1="442.070000" x2="566.260029" y2="438.070000" spreadMethod="pad" gradientUnits="userSpaceOnUse"><stop id="ev20a2pgqbaf35-fill-0" offset="0%" stop-color="rgb(126,119,184)"/><stop id="ev20a2pgqbaf35-fill-1" offset="100%" stop-color="rgb(150,138,194)"/></linearGradient><linearGradient id="ev20a2pgqbaf36-fill" x1="467.870029" y1="497.290000" x2="467.870029" y2="441.730000" spreadMethod="pad" gradientUnits="userSpaceOnUse"><stop id="ev20a2pgqbaf36-fill-0" offset="0%" stop-color="rgb(144,163,211)"/><stop id="ev20a2pgqbaf36-fill-1" offset="100%" stop-color="rgb(116,95,169)"/></linearGradient><linearGradient id="ev20a2pgqbaf37-fill" x1="589.910029" y1="729.650000" x2="545.900029" y2="565.890000" spreadMethod="pad" gradientUnits="userSpaceOnUse"><stop id="ev20a2pgqbaf37-fill-0" offset="0%" stop-color="rgb(203,192,223)"/><stop id="ev20a2pgqbaf37-fill-1" offset="100%" stop-color="rgb(231,220,237)"/></linearGradient><linearGradient id="ev20a2pgqbaf38-fill" x1="460.320029" y1="176.530000" x2="467.860029" y2="139.230000" spreadMethod="pad" gradientUnits="userSpaceOnUse"><stop id="ev20a2pgqbaf38-fill-0" offset="0%" stop-color="rgb(124,203,181)"/><stop id="ev20a2pgqbaf38-fill-1" offset="100%" stop-color="rgb(92,202,234)"/></linearGradient><linearGradient id="ev20a2pgqbaf39-fill" x1="605.730029" y1="242.070000" x2="616.470029" y2="188.950000" spreadMethod="pad" gradientUnits="userSpaceOnUse"><stop id="ev20a2pgqbaf39-fill-0" offset="0%" stop-color="rgb(124,203,181)"/><stop id="ev20a2pgqbaf39-fill-1" offset="100%" stop-color="rgb(92,202,234)"/></linearGradient><linearGradient id="ev20a2pgqbaf41-fill" x1="393.950029" y1="433.060000" x2="387.190029" y2="248.240000" spreadMethod="pad" gradientUnits="userSpaceOnUse"><stop id="ev20a2pgqbaf41-fill-0" offset="0%" stop-color="rgb(184,158,203)"/><stop id="ev20a2pgqbaf41-fill-1" offset="100%" stop-color="rgb(150,138,194)"/></linearGradient><linearGradient id="ev20a2pgqbaf42-fill" x1="33.810029" y1="344.750000" x2="7.990029" y2="214.990000" spreadMethod="pad" gradientUnits="userSpaceOnUse"><stop id="ev20a2pgqbaf42-fill-0" offset="0%" stop-color="rgb(151,106,173)"/><stop id="ev20a2pgqbaf42-fill-1" offset="100%" stop-color="rgb(205,236,252)"/></linearGradient><linearGradient id="ev20a2pgqbaf43-fill" x1="106.010029" y1="330.270000" x2="106.010029" y2="208.350000" spreadMethod="pad" gradientUnits="userSpaceOnUse"><stop id="ev20a2pgqbaf43-fill-0" offset="0%" stop-color="rgb(151,106,173)"/><stop id="ev20a2pgqbaf43-fill-1" offset="100%" stop-color="rgb(205,236,252)"/></linearGradient><linearGradient id="ev20a2pgqbaf44-fill" x1="30.390029" y1="336.680000" x2="80.000029" y2="87.360000" spreadMethod="pad" gradientUnits="userSpaceOnUse"><stop id="ev20a2pgqbaf44-fill-0" offset="0%" stop-color="rgb(132,88,164)"/><stop id="ev20a2pgqbaf44-fill-1" offset="100%" stop-color="rgb(237,36,126)"/></linearGradient><linearGradient id="ev20a2pgqbaf46-fill" x1="196.470029" y1="161.900000" x2="206.300029" y2="112.510000" spreadMethod="pad" gradientUnits="userSpaceOnUse"><stop id="ev20a2pgqbaf46-fill-0" offset="0%" stop-color="rgb(204,144,192)"/><stop id="ev20a2pgqbaf46-fill-1" offset="100%" stop-color="rgb(241,113,171)"/></linearGradient><linearGradient id="ev20a2pgqbaf47-fill" x1="205.030029" y1="414.230000" x2="136.610029" y2="70.380000" spreadMethod="pad" gradientUnits="userSpaceOnUse"><stop id="ev20a2pgqbaf47-fill-0" offset="0%" stop-color="rgb(173,85,161)"/><stop id="ev20a2pgqbaf47-fill-1" offset="100%" stop-color="rgb(201,106,170)"/></linearGradient><linearGradient id="ev20a2pgqbaf48-fill" x1="453.820029" y1="505.150000" x2="399.560029" y2="303.240000" spreadMethod="pad" gradientUnits="userSpaceOnUse"><stop id="ev20a2pgqbaf48-fill-0" offset="0%" stop-color="rgb(203,192,223)"/><stop id="ev20a2pgqbaf48-fill-1" offset="100%" stop-color="rgb(231,220,237)"/></linearGradient><linearGradient id="ev20a2pgqbaf49-fill" x1="300.180029" y1="358.280000" x2="339.990029" y2="354.740000" spreadMethod="pad" gradientUnits="userSpaceOnUse"><stop id="ev20a2pgqbaf49-fill-0" offset="0%" stop-color="rgb(126,119,184)"/><stop id="ev20a2pgqbaf49-fill-1" offset="100%" stop-color="rgb(150,138,194)"/></linearGradient><linearGradient id="ev20a2pgqbaf51-fill" x1="337.070029" y1="137.330000" x2="65.620029" y2="137.330000" spreadMethod="pad" gradientUnits="userSpaceOnUse"><stop id="ev20a2pgqbaf51-fill-0" offset="0%" stop-color="rgb(1,1,1)"/><stop id="ev20a2pgqbaf51-fill-1" offset="100%" stop-color="rgb(146,149,187)"/></linearGradient><linearGradient id="ev20a2pgqbaf52-fill" x1="0" y1="0.500000" x2="1" y2="0.500000" spreadMethod="pad" gradientUnits="objectBoundingBox"><stop id="ev20a2pgqbaf52-fill-0" offset="0%" stop-color="rgb(104,165,157)"/><stop id="ev20a2pgqbaf52-fill-1" offset="100%" stop-color="rgb(151,222,241)"/></linearGradient><linearGradient id="ev20a2pgqbaf53-fill" x1="223.610029" y1="410.530000" x2="185.750029" y2="220.260000" spreadMethod="pad" gradientUnits="userSpaceOnUse"><stop id="ev20a2pgqbaf53-fill-0" offset="0%" stop-color="rgb(151,106,173)"/><stop id="ev20a2pgqbaf53-fill-1" offset="100%" stop-color="rgb(205,236,252)"/></linearGradient><linearGradient id="ev20a2pgqbaf54-fill" x1="422.480029" y1="482.060000" x2="422.480029" y2="325.970000" spreadMethod="pad" gradientUnits="userSpaceOnUse"><stop id="ev20a2pgqbaf54-fill-0" offset="0%" stop-color="rgb(151,106,173)"/><stop id="ev20a2pgqbaf54-fill-1" offset="100%" stop-color="rgb(205,236,252)"/></linearGradient><linearGradient id="ev20a2pgqbaf55-fill" x1="287.140029" y1="388.310000" x2="255.660029" y2="271.150000" spreadMethod="pad" gradientUnits="userSpaceOnUse"><stop id="ev20a2pgqbaf55-fill-0" offset="0%" stop-color="rgb(203,192,223)"/><stop id="ev20a2pgqbaf55-fill-1" offset="100%" stop-color="rgb(231,220,237)"/></linearGradient><linearGradient id="ev20a2pgqbaf56-fill" x1="230.480029" y1="270.640000" x2="324.700029" y2="339.850000" spreadMethod="pad" gradientUnits="userSpaceOnUse"><stop id="ev20a2pgqbaf56-fill-0" offset="0%" stop-color="rgb(184,158,203)"/><stop id="ev20a2pgqbaf56-fill-1" offset="100%" stop-color="rgb(150,138,194)"/></linearGradient><linearGradient id="ev20a2pgqbaf57-fill" x1="306.530029" y1="336.950000" x2="285.760029" y2="259.660000" spreadMethod="pad" gradientUnits="userSpaceOnUse"><stop id="ev20a2pgqbaf57-fill-0" offset="0%" stop-color="rgb(203,192,223)"/><stop id="ev20a2pgqbaf57-fill-1" offset="100%" stop-color="rgb(231,220,237)"/></linearGradient><linearGradient id="ev20a2pgqbaf58-fill" x1="254.240029" y1="293.470000" x2="288.110029" y2="318.360000" spreadMethod="pad" gradientUnits="userSpaceOnUse"><stop id="ev20a2pgqbaf58-fill-0" offset="0%" stop-color="rgb(144,163,211)"/><stop id="ev20a2pgqbaf58-fill-1" offset="100%" stop-color="rgb(116,95,169)"/></linearGradient><linearGradient id="ev20a2pgqbaf62-fill" x1="1.240174" y1="-0.372645" x2="0.302430" y2="0.925003" spreadMethod="pad" gradientUnits="objectBoundingBox"><stop id="ev20a2pgqbaf62-fill-0" offset="0%" stop-color="rgba(255,255,255,0.77)"/><stop id="ev20a2pgqbaf62-fill-1" offset="0%" stop-color="rgb(127,197,188)"/><stop id="ev20a2pgqbaf62-fill-2" offset="100%" stop-color="rgb(92,202,233)"/></linearGradient><linearGradient id="ev20a2pgqbaf63-fill" x1="71.134492" y1="296.294056" x2="163.157688" y2="206.827057" spreadMethod="pad" gradientUnits="userSpaceOnUse"><stop id="ev20a2pgqbaf63-fill-0" offset="0%" stop-color="rgb(203,192,223)"/><stop id="ev20a2pgqbaf63-fill-1" offset="100%" stop-color="rgb(231,220,237)"/></linearGradient><linearGradient id="ev20a2pgqbaf64-fill" x1="551.600029" y1="737.550000" x2="551.600029" y2="559.200000" spreadMethod="pad" gradientUnits="userSpaceOnUse"><stop id="ev20a2pgqbaf64-fill-0" offset="0%" stop-color="rgb(151,106,173)"/><stop id="ev20a2pgqbaf64-fill-1" offset="100%" stop-color="rgb(205,236,252)"/></linearGradient><linearGradient id="ev20a2pgqbaf67-fill" x1="650.661084" y1="384.545160" x2="737.490691" y2="248.624862" spreadMethod="pad" gradientUnits="userSpaceOnUse"><stop id="ev20a2pgqbaf67-fill-0" offset="0%" stop-color="rgb(184,158,203)"/><stop id="ev20a2pgqbaf67-fill-1" offset="100%" stop-color="rgb(150,138,194)"/></linearGradient><linearGradient id="ev20a2pgqbaf68-fill" x1="564.125544" y1="343.840015" x2="584.070744" y2="303.043014" spreadMethod="pad" gradientUnits="userSpaceOnUse"><stop id="ev20a2pgqbaf68-fill-0" offset="0%" stop-color="rgb(220,32,143)"/><stop id="ev20a2pgqbaf68-fill-1" offset="100%" stop-color="rgb(237,36,126)"/></linearGradient><linearGradient id="ev20a2pgqbaf69-fill" x1="577.652186" y1="317.795355" x2="589.972186" y2="302.972856" spreadMethod="pad" gradientUnits="userSpaceOnUse"><stop id="ev20a2pgqbaf69-fill-0" offset="0%" stop-color="rgb(173,85,161)"/><stop id="ev20a2pgqbaf69-fill-1" offset="100%" stop-color="rgb(241,113,171)"/></linearGradient><linearGradient id="ev20a2pgqbaf70-fill" x1="730.777380" y1="347.790679" x2="768.135682" y2="322.585079" spreadMethod="pad" gradientUnits="userSpaceOnUse"><stop id="ev20a2pgqbaf70-fill-0" offset="0%" stop-color="rgb(203,192,223)"/><stop id="ev20a2pgqbaf70-fill-1" offset="100%" stop-color="rgb(231,220,237)"/></linearGradient></defs><g id="ev20a2pgqbaf2" style="isolation:isolate"><g id="ev20a2pgqbaf3"><g id="ev20a2pgqbaf4"><path id="ev20a2pgqbaf5" d="M719.640000,668.590000C686.340000,723.590000,407.430000,708.760000,303.070000,657.590000C198.710000,606.420000,207,243.860000,256.650000,178.400000C306.300000,112.940000,599.830000,4.380000,729,75.430000C858.170000,146.480000,764,595.370000,719.640000,668.590000Z" fill="rgb(230,246,253)" stroke="none" stroke-width="1"/><path id="ev20a2pgqbaf6" d="M368.340000,52.940000C368.070000,26.070000,291.130000,-7.570000,256.340000,1.520000C221.550000,10.610000,216.130000,130.610000,269.140000,134.590000C322.150000,138.570000,368.690000,86.420000,368.340000,52.940000Z" fill="rgb(230,246,253)" stroke="none" stroke-width="1"/><path id="ev20a2pgqbaf7" d="M829.430000,639.620000C835.990000,611.180000,797.870000,574.490000,777.760000,579.740000C757.650000,584.990000,734.890000,679.680000,765.500000,682C796.110000,684.320000,825.080000,658.450000,829.430000,639.620000Z" fill="rgb(230,246,253)" stroke="none" stroke-width="1"/><path id="ev20a2pgqbaf8" d="M440.330000,649.820000C440.330000,649.820000,355.700000,686.450000,340,671.650000C323.220000,655.800000,380,580.990000,398.370000,580.990000C425.550000,581,443.300000,638.790000,440.330000,649.820000Z" fill="url(#ev20a2pgqbaf8-fill)" stroke="none" stroke-width="1"/><path id="ev20a2pgqbaf9" style="mix-blend-mode:multiply" d="M384.530000,590.230000C384.530000,590.230000,410.530000,611.060000,407.370000,629.610000C404.210000,648.160000,360.300000,674.720000,360.300000,674.720000C360.300000,674.720000,398.650000,666.960000,433.210000,653.460000L389.120000,588.200000Z" opacity="0.3" fill="url(#ev20a2pgqbaf9-fill)" stroke="none" stroke-width="1"/><path id="ev20a2pgqbaf10" d="M533,80.170000C533,80.170000,493.940000,90.290000,462.630000,134.530000C431.320000,178.770000,525.910000,145.740000,525.910000,145.740000Z" fill="url(#ev20a2pgqbaf10-fill)" stroke="none" stroke-width="1"/><path id="ev20a2pgqbaf11" d="M486.280000,121C486.280000,121,532.280000,71.140000,557.350000,70.120000C582.420000,69.100000,607.220000,99.720000,607.220000,99.720000Z" fill="url(#ev20a2pgqbaf11-fill)" stroke="none" stroke-width="1"/><path id="ev20a2pgqbaf12" d="M674.460000,422.610000C595.460000,460.320000,391.950000,346.850000,377.630000,294.370000C371.940000,273.470000,373.580000,251.640000,380.890000,230.450000L380.890000,230.390000C412.270000,139.720000,547.620000,60.390000,657.080000,112.830000C731.230000,148.380000,753.300000,241.900000,739.210000,318.160000C730.480000,365.850000,707.590000,406.800000,674.460000,422.610000Z" fill="url(#ev20a2pgqbaf12-fill)" stroke="none" stroke-width="1"/><path id="ev20a2pgqbaf13" d="M617,428.540000C586,424,543,411.150000,516.240000,399C466.610000,376.430000,433.380000,354.630000,417.010000,337.550000L417.010000,337.550000C406.250000,326.310000,402.750000,317.170000,406.600000,311.140000C408.940000,307.470000,420.260000,308.450000,436.870000,312.590000C485.650000,324.880000,580.050000,364.720000,626.870000,395.140000C630.870000,397.770000,634.590000,400.320000,637.870000,402.770000C638.590000,403.300000,639.230000,403.820000,639.870000,404.340000C640.001305,404.418535,640.125153,404.508911,640.240000,404.610000C647.950000,410.680000,652.930000,416.090000,654.240000,420.500000C654.572395,421.500912,654.678279,422.563168,654.550000,423.610000C653.400000,430.930000,638,431.640000,617,428.540000Z" fill="url(#ev20a2pgqbaf13-fill)" stroke="none" stroke-width="1"/><path id="ev20a2pgqbaf14" style="mix-blend-mode:multiply" d="M674.460000,422.610000C595.460000,460.320000,391.950000,346.850000,377.630000,294.370000C371.940000,273.470000,373.580000,251.640000,380.890000,230.450000L380.890000,230.390000C380.890000,230.390000,382.500000,264.450000,423.050000,289.160000C463.600000,313.870000,591.620000,364.370000,625.550000,357.110000C659.480000,349.850000,688.740000,259.420000,688.740000,259.420000L739.210000,318.160000C730.480000,365.850000,707.590000,406.800000,674.460000,422.610000Z" opacity="0.3" fill="url(#ev20a2pgqbaf14-fill)" stroke="none" stroke-width="1"/><path id="ev20a2pgqbaf15" style="mix-blend-mode:multiply" d="M617,428.540000C599.830000,409.540000,548.270000,357.050000,493.100000,345.540000C425.430000,331.430000,417.050000,337.540000,417.050000,337.540000L417.050000,337.540000C406.290000,326.300000,402.790000,317.160000,406.640000,311.130000C408.980000,307.460000,420.300000,308.440000,436.910000,312.580000C485.690000,324.870000,580.090000,364.710000,626.910000,395.130000C631.750000,398.460000,636.090000,401.530000,639.910000,404.330000C640.041305,404.408535,640.165153,404.498911,640.280000,404.600000C647.990000,410.670000,652.970000,416.080000,654.280000,420.490000C654.612395,421.490912,654.718279,422.553168,654.590000,423.600000C653.400000,430.930000,638,431.640000,617,428.540000Z" opacity="0.5" fill="url(#ev20a2pgqbaf15-fill)" stroke="none" stroke-width="1"/><path id="ev20a2pgqbaf16" d="M637.810000,402.740000C620.990000,408.640000,560.330000,392.810000,528.260000,378.230000C470.810000,352.050000,439.990000,327.140000,436.850000,312.550000C489.800000,325.900000,596.650000,371.760000,637.810000,402.740000Z" fill="url(#ev20a2pgqbaf16-fill)" stroke="none" stroke-width="1"/><path id="ev20a2pgqbaf17" d="M378.590000,234.140000C375.670000,264.420000,553.650000,356.730000,621.070000,332.140000C688.490000,307.550000,714,135,611.230000,105.070000C513.280000,76.550000,383.880000,179.270000,378.590000,234.140000Z" fill="rgb(223,226,242)" stroke="none" stroke-width="1"/><path id="ev20a2pgqbaf18" d="M380.940000,230.400000C378,260.680000,556,353,623.420000,328.400000C690.840000,303.800000,716.320000,131.230000,613.580000,101.320000C515.620000,72.810000,386.220000,175.530000,380.940000,230.400000Z" fill="url(#ev20a2pgqbaf18-fill)" stroke="none" stroke-width="1"/><path id="ev20a2pgqbaf19" d="M703.140000,167.090000C703.140000,167.090000,658,255.300000,702.420000,309.460000C702.420000,309.460000,729.150000,323.060000,751.800000,312.310000C751.800000,312.310000,717.540000,326.430000,700.320000,291.600000C683.100000,256.770000,715.410000,191.130000,744.060000,176.600000C772.710000,162.070000,799.660000,179.050000,799.660000,179.050000L792,164.150000C792,164.150000,752.330000,139,703.140000,167.090000Z" fill="url(#ev20a2pgqbaf19-fill)" stroke="none" stroke-width="1"/><path id="ev20a2pgqbaf20" d="M792,164.150000C792,164.150000,761.510000,149.210000,725.470000,177.480000C687.200000,207.480000,678.640000,281.310000,703.240000,302.370000C727.840000,323.430000,798.060000,225.460000,798.060000,225.460000L798,175.840000C798,175.840000,797,168.510000,792,164.150000Z" fill="url(#ev20a2pgqbaf20-fill)" stroke="none" stroke-width="1"/><path id="ev20a2pgqbaf21" d="M797.520000,272.480000C785.450000,291.970000,770.350000,305.900000,754.760000,312.410000L754.640000,312.410000L750.360000,314.020000L750.360000,314.020000C738.230000,318.020000,725.920000,317.380000,714.640000,311.360000C678,291.850000,694,234.170000,710.560000,204.320000C729.700000,169.860000,769.230000,159.830000,792.830000,172.480000C820.920000,187.540000,821.160000,234.340000,797.520000,272.480000Z" fill="url(#ev20a2pgqbaf21-fill)" stroke="none" stroke-width="1"/><path id="ev20a2pgqbaf22" style="mix-blend-mode:screen" d="M476.720000,136.240000C478.490000,144.240000,520.720000,139.550000,558.020000,158.440000C595.320000,177.330000,623.020000,231.740000,656.590000,239.270000C683.250000,245.270000,685,141.750000,623.930000,108.860000C562.860000,75.970000,475,128.280000,476.720000,136.240000Z" opacity="0.5" fill="url(#ev20a2pgqbaf22-fill)" stroke="none" stroke-width="1"/><path id="ev20a2pgqbaf23" style="mix-blend-mode:screen" d="M418,254.150000C418,254.150000,462.480000,259.030000,510.150000,283.830000C557.820000,308.630000,563.810000,317.010000,561.100000,321.350000C558.390000,325.690000,518.420000,321.350000,474.570000,298.790000C430.720000,276.230000,418,254.150000,418,254.150000Z" opacity="0.5" fill="url(#ev20a2pgqbaf23-fill)" stroke="none" stroke-width="1"/><path id="ev20a2pgqbaf24" style="mix-blend-mode:screen" d="M385.130000,223.670000C385.130000,223.670000,393.590000,186.590000,444.470000,149.130000C444.470000,149.130000,454.290000,143.970000,456.320000,147.980000C458.350000,151.990000,412.730000,175.780000,385.130000,223.670000Z" opacity="0.5" fill="url(#ev20a2pgqbaf24-fill)" stroke="none" stroke-width="1"/><path id="ev20a2pgqbaf25" style="mix-blend-mode:screen" d="M699.910000,251.170000C699.910000,251.170000,691,286.890000,713.280000,303.830000C735.560000,320.770000,762.890000,310.390000,779.060000,287.180000C779.060000,287.180000,762.770000,306.300000,732.250000,288.180000C701.730000,270.060000,699.910000,251.170000,699.910000,251.170000Z" opacity="0.72" fill="url(#ev20a2pgqbaf25-fill)" stroke="none" stroke-width="1"/><path id="ev20a2pgqbaf26" style="mix-blend-mode:screen" d="M729.100000,188.380000C726.970000,194.850000,778.100000,199.160000,791.990000,206.680000C805.880000,214.200000,805.290000,234.540000,807.780000,235C810.270000,235.460000,820,191.080000,794,177.610000C768,164.140000,730.580000,183.870000,729.100000,188.380000Z" opacity="0.72" fill="url(#ev20a2pgqbaf26-fill)" stroke="none" stroke-width="1"/><path id="ev20a2pgqbaf27" d="M469.710000,208.350000C469.710000,208.350000,515.900000,233.790000,544.330000,237.260000C544.330000,237.260000,515.500000,275.890000,485.830000,264.440000C456.160000,252.990000,469.710000,208.350000,469.710000,208.350000Z" fill="rgb(48,149,205)" stroke="none" stroke-width="1"/><path id="ev20a2pgqbaf28" d="M586.940000,562.450000C578.600000,627.560000,544.470000,658.220000,478.890000,663.160000C414.610000,668,369,601.910000,382.420000,518.370000C391,465,402.260000,417.400000,427,386.190000L427,386.190000L427,386.120000C441,368.470000,459.370000,356.120000,484,350.950000C503.450000,346.870000,520.700000,355.950000,535.300000,372.790000C573.400000,416.510000,593.330000,512.260000,586.940000,562.450000Z" fill="url(#ev20a2pgqbaf28-fill)" stroke="none" stroke-width="1"/><path id="ev20a2pgqbaf29" style="mix-blend-mode:multiply" d="M489.840000,421.460000C489.840000,421.460000,529.590000,487.980000,529.790000,521.320000C530.460000,634.850000,478.890000,663.160000,478.890000,663.160000C478.890000,663.160000,524.950000,659.650000,544.140000,642.710000C565.140000,624.210000,592.240000,590.630000,587.430000,520.710000C583.650000,465.560000,556.730000,406,556.730000,406Z" opacity="0.3" fill="url(#ev20a2pgqbaf29-fill)" stroke="none" stroke-width="1"/><path id="ev20a2pgqbaf30" d="M380.430000,519.360000C380.430000,519.360000,387.350000,470.090000,422,467C463.570000,463.300000,497,521.940000,498.210000,563.620000C499.420000,605.300000,493.330000,644.990000,454.210000,650.120000C454.240000,650.130000,380.520000,654.480000,380.430000,519.360000Z" fill="url(#ev20a2pgqbaf30-fill)" stroke="none" stroke-width="1"/><path id="ev20a2pgqbaf31" d="M381.360000,525.220000C381.360000,525.220000,388.280000,476,423,472.870000C464.560000,469.180000,498,527.810000,499.200000,569.490000C500.400000,611.170000,494.320000,650.860000,455.200000,655.990000C455.170000,656,381.440000,660.340000,381.360000,525.220000Z" fill="url(#ev20a2pgqbaf31-fill)" stroke="none" stroke-width="1"/><path id="ev20a2pgqbaf32" style="mix-blend-mode:multiply" d="M534.830000,372.260000C534.830000,372.260000,469.480000,403.740000,443.290000,403.130000C417.870000,402.540000,425.980000,386.600000,426.460000,385.700000L426.460000,385.700000L426.460000,385.630000C440.460000,367.970000,458.820000,355.630000,483.460000,350.460000C503,346.350000,520.230000,355.470000,534.830000,372.260000Z" opacity="0.5" fill="url(#ev20a2pgqbaf32-fill)" stroke="none" stroke-width="1"/><path id="ev20a2pgqbaf33" style="mix-blend-mode:screen" d="M385.390000,520.400000C391.800000,533.200000,409.780000,514.470000,434.450000,516.040000C459.120000,517.610000,473.720000,533.570000,480.320000,528.260000C486.920000,522.950000,460.580000,476.500000,423,477.880000C393,479,383.200000,516,385.390000,520.400000Z" opacity="0.72" fill="url(#ev20a2pgqbaf33-fill)" stroke="none" stroke-width="1"/><path id="ev20a2pgqbaf34" style="mix-blend-mode:screen" d="M423.320000,638.430000C423.320000,638.430000,434.730000,651.260000,451.710000,650.560000C468.690000,649.860000,473.320000,638.480000,473.320000,638.480000C473.320000,638.480000,465.450000,634.790000,453.810000,638.960000C442.170000,643.130000,431.120000,642,423.320000,638.430000Z" opacity="0.72" fill="url(#ev20a2pgqbaf34-fill)" stroke="none" stroke-width="1"/><path id="ev20a2pgqbaf35" d="M521.680000,434.890000C525.900000,456.130000,537.560000,479.610000,547.680000,489.600000C551.220000,493.140000,554.600000,494.960000,557.360000,494.550000C568.140000,492.930000,574.640000,462.840000,559.960000,426.090000C547.960000,395.840000,531.700000,384.020000,525.660000,386.090000C522.900000,387.090000,519.880000,391.240000,518.890000,400.510000C518,408.130000,518.560000,419.270000,521.680000,434.890000Z" fill="url(#ev20a2pgqbaf35-fill)" stroke="none" stroke-width="1"/><path id="ev20a2pgqbaf36" style="mix-blend-mode:multiply" d="M539.770000,482.060000C539.770000,482.060000,486.770000,504.960000,440.650000,494.600000C394.530000,484.240000,396,453.070000,396,453.070000L410.475829,408.036854Z" opacity="0.5" fill="url(#ev20a2pgqbaf36-fill)" stroke="none" stroke-width="1"/><path id="ev20a2pgqbaf37" d="M511,613.080000C511,613.080000,525,728.520000,554.530000,737.550000C555.258316,737.786074,556.008901,737.946914,556.770000,738.030000C580.270000,740.790000,607.330000,625.270000,603.370000,584.900000C602.370000,574.670000,598.300000,567.710000,592.300000,563.640000C571.230000,549.330000,526.860000,570.630000,511,613.080000Z" fill="url(#ev20a2pgqbaf37-fill)" stroke="none" stroke-width="1"/><path id="ev20a2pgqbaf38" d="M479.890000,180.190000C486.720000,179.890000,489.670000,147.410000,477.520000,141.560000C465.370000,135.710000,440.520000,151.390000,439.450000,163.080000C438.970000,168.290000,452.670000,167.080000,458.640000,170.170000C466,174,473.580000,180.470000,479.890000,180.190000Z" fill="url(#ev20a2pgqbaf38-fill)" stroke="none" stroke-width="1"/><path id="ev20a2pgqbaf39" d="M567,211.300000C561.180000,200.930000,620.170000,178.870000,641.880000,197.550000C663.590000,216.230000,652.810000,242.610000,643.030000,248.670000C637.360000,252.180000,623.560000,235.530000,603.850000,227.320000C585.710000,219.760000,570.170000,217,567,211.300000Z" fill="url(#ev20a2pgqbaf39-fill)" stroke="none" stroke-width="1"/><g id="ev20a2pgqbaf40_tr" transform="translate(544.158563,487.045343) rotate(0)"><g id="ev20a2pgqbaf40" transform="translate(-544.158563,-487.045343)"><path id="ev20a2pgqbaf41" d="M417,337.540000C417,337.540000,350.370000,308.140000,295.850000,251.540000C295.850000,251.540000,278.430000,270.230000,292.060000,312.540000C292.060000,312.540000,395.060000,422.900000,453.370000,430.130000C511.680000,437.360000,489.830000,356.440000,489.830000,356.440000C489.830000,356.440000,441.150000,354.320000,417,337.540000Z" fill="url(#ev20a2pgqbaf41-fill)" stroke="none" stroke-width="1"/><path id="ev20a2pgqbaf42" style="mix-blend-mode:multiply" d="M0,272.170000C0,272.170000,1.400000,275.290000,4,280.240000C11.630000,295.190000,29.780000,326.770000,52.480000,341.040000C51.360000,339.040000,16.870000,276.530000,13.110000,222.160000C12.870000,219.450000,12.790000,216.730000,12.750000,214.050000C7.313727,233.017106,3.081954,252.308912,0.080000,271.810000C0.061758,271.931718,0.035026,272.052012,0,272.170000Z" opacity="0.3" fill="url(#ev20a2pgqbaf42-fill)" stroke="none" stroke-width="1"/><polygon id="ev20a2pgqbaf43" style="mix-blend-mode:multiply" points="104.740000,325.970000 95.920000,330.270000 63.440000,296.920000 33.810000,281.860000 48.940000,273.300000 148.430000,208.340000 178.210000,232.770000 104.740000,325.970000" opacity="0.5" fill="url(#ev20a2pgqbaf43-fill)" stroke="none" stroke-width="1"/><path id="ev20a2pgqbaf44" d="M0,272.170000C0,272.170000,1.400000,275.290000,4,280.240000C11.630000,295.190000,29.780000,326.770000,52.480000,341.040000L52.480000,341.040000C52.480000,341.040000,82.780000,211,116.120000,125.510000L65.710000,84.510000L65.630000,84.510000L65.310000,85.070000C63.870000,87.670000,57.680000,98.780000,49.520000,116.070000C49.462494,116.220661,49.395699,116.367609,49.320000,116.510000C34.481852,147.982884,22.237853,180.614599,12.710000,214.080000C7.288454,233.038154,3.070053,252.319891,0.080000,271.810000C0.061758,271.931718,0.035026,272.052012,0,272.170000Z" fill="url(#ev20a2pgqbaf44-fill)" stroke="none" stroke-width="1"/><path id="ev20a2pgqbaf45" d="M521.680000,434.890000C525.900000,456.130000,537.560000,479.610000,547.680000,489.600000C547.680000,489.600000,561.840000,419.060000,518.890000,400.530000C518,408.130000,518.560000,419.270000,521.680000,434.890000Z" fill="rgb(100,68,155)" stroke="none" stroke-width="1"/><path id="ev20a2pgqbaf46" d="M337.150000,189.900000C337.150000,189.900000,205.980000,139.280000,116.150000,125.500000L65.660000,84.500000C65.660000,84.500000,252.180000,120.050000,337.150000,189.900000Z" fill="url(#ev20a2pgqbaf46-fill)" stroke="none" stroke-width="1"/><path id="ev20a2pgqbaf47" d="M2.680690,272.170000C2.680690,272.170000,4.080690,275.290000,6.680690,280.240000C22.550690,309.500000,53.680690,339.600000,55.160690,341.040000L55.160690,341.040000C154.160690,382.610000,263.370690,403.110000,263.370690,403.110000C314.650690,310.300000,338.560690,196.020000,339.760690,190.110000C339.779429,190.027572,339.806224,189.947186,339.840690,189.870000C201.060690,111.400000,72.390690,85.300000,68.390690,84.540000L68.310690,84.540000L67.990690,85.100000C62.059724,95.079462,56.785221,105.434725,52.200690,116.100000C52.143184,116.250661,52.076389,116.397609,52.000690,116.540000C37.500690,149.660000,24.680690,190.590000,15.750690,222.160000C8.200690,248.870000,3.480690,268.850000,2.760690,271.810000C2.742448,271.931718,2.715716,272.052012,2.680690,272.170000Z" fill="url(#ev20a2pgqbaf47-fill)" stroke="none" stroke-width="1"/><path id="ev20a2pgqbaf48" d="M304.340000,379.050000C304.340000,379.050000,304.340000,379.130000,304.340000,379.170000C424.530000,480.300000,539.770000,482.060000,539.770000,482.060000C552.920000,457.060000,547.040000,397.800000,533.770000,389.440000C533.187632,389.023628,532.522640,388.737170,531.820000,388.600000L531.820000,388.600000C457.190000,371.600000,382.960000,348.470000,343.670000,335.600000L343.350000,335.520000C329.120000,330.850000,319.530000,327.520000,316.250000,326.450000L315,326L314.560000,326.200000C312.655682,326.829842,310.949213,327.946803,309.610000,329.440000C298.220000,341.520000,304,376.730000,304.340000,379.050000Z" fill="url(#ev20a2pgqbaf48-fill)" stroke="none" stroke-width="1"/><path id="ev20a2pgqbaf49" d="M315,326C315,326,339.800000,345.690000,341.320000,369.580000C342.840000,393.470000,314.430000,388.670000,304.390000,379.210000C304.370000,379.180000,289.160000,333.720000,315,326Z" fill="url(#ev20a2pgqbaf49-fill)" stroke="none" stroke-width="1"/><path id="ev20a2pgqbaf50" d="M494.900000,415.670000C490.990000,416.120000,487.520000,454.950000,490.790000,455.940000C494.060000,456.930000,497.590000,448.450000,499.590000,435.650000C501.590000,422.850000,498.680000,415.240000,494.900000,415.670000Z" fill="rgb(255,255,255)" stroke="none" stroke-width="1"/><path id="ev20a2pgqbaf51" style="mix-blend-mode:screen" d="M337.080000,190.150000C337.080000,190.150000,186.300000,131.910000,137.320000,116.760000C88.340000,101.610000,65.620000,84.520000,65.620000,84.520000L116.110000,125.520000C116.110000,125.520000,254,152.100000,337.080000,190.150000Z" opacity="0.72" fill="url(#ev20a2pgqbaf51-fill)" stroke="none" stroke-width="1"/><path id="ev20a2pgqbaf52" d="M152.650000,376.300000C152.650000,376.300000,227.480000,275.400000,243.870000,157.580000C243.870000,157.580000,214.730000,137.740000,164.790000,109.580000L155.410000,106.790000L223,151.150000C223,151.150000,209.060000,254.150000,143.680000,374.890000Z" fill="url(#ev20a2pgqbaf52-fill)" stroke="none" stroke-width="1"/><path id="ev20a2pgqbaf53" style="mix-blend-mode:multiply" d="M52.480000,341.080000C151.480000,382.650000,260.690000,403.150000,260.690000,403.150000C311.970000,310.340000,335.880000,196.060000,337.080000,190.150000C335.640000,195.220000,312.370000,276.450000,287.790000,287.150000C262.410000,298.150000,213.890000,292.260000,213.890000,292.260000C213.890000,292.260000,175.670000,321.080000,125.190000,332.550000C74.710000,344.020000,52.480000,341.080000,52.480000,341.080000Z" opacity="0.5" fill="url(#ev20a2pgqbaf53-fill)" stroke="none" stroke-width="1"/><path id="ev20a2pgqbaf54" style="mix-blend-mode:multiply" d="M304.340000,379.050000C304.340000,379.050000,304.340000,379.130000,304.340000,379.170000C424.530000,480.300000,539.770000,482.060000,539.770000,482.060000C552.920000,457.060000,547.040000,397.800000,533.770000,389.440000L531.820000,388.600000C532.890000,390.280000,558.160000,429.600000,534.210000,453.880000C509.750000,478.620000,382.320000,422.740000,360.300000,383.490000C338.280000,344.240000,345.710000,336.280000,345.710000,336.280000L343.630000,335.560000L343.310000,335.480000L316.210000,326.410000L315,326L314.560000,326.200000C312.801224,327.103904,311.142142,328.189849,309.610000,329.440000C301.900000,335.600000,290.430000,350.430000,304.340000,379.050000Z" opacity="0.3" fill="url(#ev20a2pgqbaf54-fill)" stroke="none" stroke-width="1"/><path id="ev20a2pgqbaf55" d="M329.790000,358.290000C333.130000,383,292.390000,392.290000,263.610000,375.810000C234.830000,359.330000,222.710000,338.100000,216.150000,322.700000C209.590000,307.300000,218.670000,283.060000,224.730000,279.530000C230.790000,276,289.050000,298.270000,298.950000,303.260000C329.790000,318.800000,327.810000,343.650000,329.790000,358.290000Z" fill="url(#ev20a2pgqbaf55-fill)" stroke="none" stroke-width="1"/><path id="ev20a2pgqbaf56" d="M326.910000,336.850000C326.910000,336.850000,252.740000,319.130000,223,281C223,281,224.270000,275.690000,237,279.370000L302,303.130000C302,303.130000,325.930000,320.680000,326.910000,336.850000Z" fill="url(#ev20a2pgqbaf56-fill)" stroke="none" stroke-width="1"/><path id="ev20a2pgqbaf57" d="M324.130000,332.220000C324.130000,332.220000,323.450000,313.650000,317.500000,301.620000C302.740000,271.700000,278.550000,261.620000,278.550000,261.620000C278.550000,261.620000,271.430000,268.320000,269.920000,277.020000C268.410000,285.720000,287.790000,318.820000,287.790000,318.820000C287.790000,318.820000,306.110000,332.690000,324.130000,332.220000Z" fill="url(#ev20a2pgqbaf57-fill)" stroke="none" stroke-width="1"/><path id="ev20a2pgqbaf58" style="mix-blend-mode:multiply" d="M275,294.180000L247.350000,302.900000C247.350000,302.900000,267.140000,315.340000,287.830000,318.800000Z" opacity="0.5" fill="url(#ev20a2pgqbaf58-fill)" stroke="none" stroke-width="1"/><path id="ev20a2pgqbaf59" d="M308.480000,299C314.310000,299.680000,303.480000,281.830000,299.920000,281.830000C296.360000,281.830000,304.190000,298.520000,308.480000,299Z" fill="rgb(255,255,255)" stroke="none" stroke-width="1"/><path id="ev20a2pgqbaf60" d="M475.730000,394.560000C476.680000,392.440000,464.180000,389.090000,462.280000,390.560000C460.380000,392.030000,465.120000,395.110000,468.150000,396.240000C471.180000,397.370000,475,396.240000,475.730000,394.560000Z" fill="rgb(255,255,255)" stroke="none" stroke-width="1"/><path id="ev20a2pgqbaf61" d="M513.210000,404C512.460000,409,481.210000,403.280000,481.330000,396.840000C481.450000,390.400000,514,399.060000,513.210000,404Z" fill="rgb(255,255,255)" stroke="none" stroke-width="1"/><path id="ev20a2pgqbaf62" d="M223,151.150000C223,151.150000,186.740000,204.210000,165.210000,224.860000L158.790000,217.570000C158.790000,217.570000,190.900000,199.750000,219.990000,150.330000L201.440000,137.210000C201.440000,137.210000,223.260000,149.100000,223,151.150000Z" fill="url(#ev20a2pgqbaf62-fill)" stroke="none" stroke-width="1"/><path id="ev20a2pgqbaf63" d="M125.760000,192L154.510000,198.840000L179.930000,224.840000L187.680000,255.370000L110.310000,331.240000L44.540000,269.150000ZM145.760000,236.330000C149.038518,239.696846,154.023343,240.755237,158.387058,239.011010C162.750772,237.266783,165.632639,233.063984,165.687113,228.364902C165.741586,223.665821,162.957922,219.397345,158.635815,217.552428C154.313708,215.707511,149.305686,216.650061,145.950000,219.940000C141.396778,224.412455,141.311876,231.723006,145.760000,236.300000Z" fill="url(#ev20a2pgqbaf63-fill)" stroke="none" stroke-width="1"/></g></g><path id="ev20a2pgqbaf64" style="mix-blend-mode:multiply" d="M511,613.080000C511,613.080000,525,728.520000,554.530000,737.550000C529.380000,715.260000,513.600000,625.690000,554.530000,574.430000C566.010000,560.050000,584.990000,562.560000,592.300000,563.640000C571.230000,549.330000,526.860000,570.630000,511,613.080000Z" opacity="0.3" fill="url(#ev20a2pgqbaf64-fill)" stroke="none" stroke-width="1"/><path id="ev20a2pgqbaf65" d="M556.730000,624.690000C561.080000,623.690000,562.130000,662.550000,556.730000,666.090000C551.330000,669.630000,550,626.200000,556.730000,624.690000Z" fill="rgb(255,255,255)" stroke="none" stroke-width="1"/><path id="ev20a2pgqbaf66" d="M374.890000,611.170000C377.490000,612.170000,370.050000,626.080000,365.810000,623.170000C361.570000,620.260000,367.930000,608.440000,374.890000,611.170000Z" fill="rgb(255,255,255)" stroke="none" stroke-width="1"/><path id="ev20a2pgqbaf67" d="M769.230000,273.350000C769.230000,273.350000,750.130000,271.110000,743.010000,296.450000C743.010000,296.450000,745.430000,352.260000,710.120000,380.230000C680.120000,404.010000,606.730000,336.230000,606.730000,336.230000L603.730000,349.430000C603.730000,349.430000,660.730000,406.730000,697.650000,410.070000C697.650000,410.070000,723.020000,410.320000,743.730000,362.740000C764.250000,315.580000,769.230000,273.350000,769.230000,273.350000Z" fill="url(#ev20a2pgqbaf67-fill)" stroke="none" stroke-width="1"/><path id="ev20a2pgqbaf68" d="M607.400000,342.180000C607.910000,356.530000,584.840000,352.790000,570.880000,343.650000C555.220000,333.380000,534.360000,306.650000,547.820000,293.470000C561.280000,280.290000,606.210000,308.540000,607.400000,342.180000Z" fill="url(#ev20a2pgqbaf68-fill)" stroke="none" stroke-width="1"/><path id="ev20a2pgqbaf69" d="M605.170000,342.910000C603.660000,345.630000,551.870000,303.970000,558.170000,293.910000C564.470000,283.850000,616.870000,321.810000,605.170000,342.910000Z" fill="url(#ev20a2pgqbaf69-fill)" stroke="none" stroke-width="1"/><path id="ev20a2pgqbaf70" d="M760,308.370000C760,308.370000,745.370000,361.760000,741.670000,361.480000C737.970000,361.200000,755.200000,308.850000,760,308.370000Z" fill="url(#ev20a2pgqbaf70-fill)" stroke="none" stroke-width="1"/></g></g></g></svg>