<svg xmlns="http://www.w3.org/2000/svg" xmlns:xlink="http://www.w3.org/1999/xlink" viewBox="0 0 591.48 675.81"><defs><style>.cls-1{isolation:isolate;}.cls-2{fill:#e6f6fd;}.cls-3{fill:url(#_ÂÁ_Ï_ÌÌ_È_ËÂÌÚ_46);}.cls-4{fill:url(#_ÂÁ_Ï_ÌÌ_È_ËÂÌÚ_28);}.cls-5{fill:url(#_ÂÁ_Ï_ÌÌ_È_ËÂÌÚ_46-2);}.cls-6{fill:url(#_ÂÁ_Ï_ÌÌ_È_ËÂÌÚ_28-2);}.cls-11,.cls-17,.cls-57,.cls-58,.cls-59,.cls-7,.cls-8{opacity:0.3;}.cls-11,.cls-14,.cls-17,.cls-20,.cls-36,.cls-41,.cls-54,.cls-57,.cls-58,.cls-59,.cls-7,.cls-8{mix-blend-mode:multiply;}.cls-7{fill:url(#_ÂÁ_Ï_ÌÌ_È_ËÂÌÚ_153);}.cls-8{fill:url(#_ÂÁ_Ï_ÌÌ_È_ËÂÌÚ_153-2);}.cls-9{fill:url(#_ÂÁ_Ï_ÌÌ_È_ËÂÌÚ_46-3);}.cls-10{fill:url(#_ÂÁ_Ï_ÌÌ_È_ËÂÌÚ_28-3);}.cls-11{fill:url(#_ÂÁ_Ï_ÌÌ_È_ËÂÌÚ_153-3);}.cls-12{fill:url(#_ÂÁ_Ï_ÌÌ_È_ËÂÌÚ_46-4);}.cls-13{fill:url(#_ÂÁ_Ï_ÌÌ_È_ËÂÌÚ_28-4);}.cls-14,.cls-20,.cls-33,.cls-34,.cls-36,.cls-41,.cls-54,.cls-60,.cls-61{opacity:0.5;}.cls-14{fill:url(#_ÂÁ_Ï_ÌÌ_È_ËÂÌÚ_416);}.cls-15{fill:url(#_ÂÁ_Ï_ÌÌ_È_ËÂÌÚ_46-5);}.cls-16{fill:url(#_ÂÁ_Ï_ÌÌ_È_ËÂÌÚ_46-6);}.cls-17{fill:url(#_ÂÁ_Ï_ÌÌ_È_ËÂÌÚ_153-4);}.cls-18{fill:url(#_ÂÁ_Ï_ÌÌ_È_ËÂÌÚ_28-5);}.cls-19{fill:url(#_ÂÁ_Ï_ÌÌ_È_ËÂÌÚ_91);}.cls-20{fill:url(#_ÂÁ_Ï_ÌÌ_È_ËÂÌÚ_416-2);}.cls-21{fill:#fff;}.cls-22,.cls-23,.cls-40,.cls-42{opacity:0.72;}.cls-22,.cls-23,.cls-33,.cls-34,.cls-35,.cls-40,.cls-42,.cls-60,.cls-61{mix-blend-mode:screen;}.cls-22{fill:url(#_ÂÁ_Ï_ÌÌ_È_ËÂÌÚ_143);}.cls-23{fill:url(#_ÂÁ_Ï_ÌÌ_È_ËÂÌÚ_134);}.cls-24{fill:url(#_ÂÁ_Ï_ÌÌ_È_ËÂÌÚ_36);}.cls-25{fill:url(#_ÂÁ_Ï_ÌÌ_È_ËÂÌÚ_264);}.cls-26{fill:url(#_ÂÁ_Ï_ÌÌ_È_ËÂÌÚ_28-6);}.cls-27{fill:url(#_ÂÁ_Ï_ÌÌ_È_ËÂÌÚ_17);}.cls-28{fill:url(#_ÂÁ_Ï_ÌÌ_È_ËÂÌÚ_264-2);}.cls-29{fill:url(#_ÂÁ_Ï_ÌÌ_È_ËÂÌÚ_28-7);}.cls-30{fill:url(#_ÂÁ_Ï_ÌÌ_È_ËÂÌÚ_17-2);}.cls-31{fill:url(#_ÂÁ_Ï_ÌÌ_È_ËÂÌÚ_46-7);}.cls-32{fill:url(#_ÂÁ_Ï_ÌÌ_È_ËÂÌÚ_132);}.cls-33{fill:url(#_ÂÁ_Ï_ÌÌ_È_ËÂÌÚ_54);}.cls-34{fill:url(#_ÂÁ_Ï_ÌÌ_È_ËÂÌÚ_54-2);}.cls-35{opacity:0.2;fill:url(#_ÂÁ_Ï_ÌÌ_È_ËÂÌÚ_126);}.cls-36{fill:url(#_ÂÁ_Ï_ÌÌ_È_ËÂÌÚ_416-3);}.cls-37{fill:url(#_ÂÁ_Ï_ÌÌ_È_ËÂÌÚ_28-8);}.cls-38{fill:url(#_ÂÁ_Ï_ÌÌ_È_ËÂÌÚ_8);}.cls-39{fill:url(#_ÂÁ_Ï_ÌÌ_È_ËÂÌÚ_65);}.cls-40{fill:url(#_ÂÁ_Ï_ÌÌ_È_ËÂÌÚ_134-2);}.cls-41{fill:url(#_ÂÁ_Ï_ÌÌ_È_ËÂÌÚ_416-4);}.cls-42{fill:url(#_ÂÁ_Ï_ÌÌ_È_ËÂÌÚ_143-2);}.cls-43{fill:url(#_ÂÁ_Ï_ÌÌ_È_ËÂÌÚ_46-8);}.cls-44{fill:url(#_ÂÁ_Ï_ÌÌ_È_ËÂÌÚ_91-2);}.cls-45{fill:#3095cd;}.cls-46{fill:url(#_ÂÁ_Ï_ÌÌ_È_ËÂÌÚ_132-2);}.cls-47{fill:url(#_ÂÁ_Ï_ÌÌ_È_ËÂÌÚ_46-9);}.cls-48{fill:url(#_ÂÁ_Ï_ÌÌ_È_ËÂÌÚ_91-3);}.cls-49{fill:url(#_ÂÁ_Ï_ÌÌ_È_ËÂÌÚ_8-2);}.cls-50{fill:url(#_ÂÁ_Ï_ÌÌ_È_ËÂÌÚ_65-2);}.cls-51{fill:url(#_ÂÁ_Ï_ÌÌ_È_ËÂÌÚ_46-10);}.cls-52{fill:url(#_ÂÁ_Ï_ÌÌ_È_ËÂÌÚ_28-9);}.cls-53{fill:url(#_ÂÁ_Ï_ÌÌ_È_ËÂÌÚ_14);}.cls-54{fill:url(#_ÂÁ_Ï_ÌÌ_È_ËÂÌÚ_416-5);}.cls-55{fill:url(#_ÂÁ_Ï_ÌÌ_È_ËÂÌÚ_46-11);}.cls-56{fill:url(#_ÂÁ_Ï_ÌÌ_È_ËÂÌÚ_46-12);}.cls-57{fill:url(#_ÂÁ_Ï_ÌÌ_È_ËÂÌÚ_153-5);}.cls-58{fill:url(#_ÂÁ_Ï_ÌÌ_È_ËÂÌÚ_153-6);}.cls-59{fill:url(#_ÂÁ_Ï_ÌÌ_È_ËÂÌÚ_153-7);}.cls-60{fill:url(#_ÂÁ_Ï_ÌÌ_È_ËÂÌÚ_11);}.cls-61{fill:url(#_ÂÁ_Ï_ÌÌ_È_ËÂÌÚ_7);}</style><linearGradient id="_ÂÁ_Ï_ÌÌ_È_ËÂÌÚ_46" x1="222.1" y1="671.58" x2="235.91" y2="561.67" gradientUnits="userSpaceOnUse"><stop offset="0" stop-color="#cbc0df"/><stop offset="1" stop-color="#e7dced"/></linearGradient><linearGradient id="_ÂÁ_Ï_ÌÌ_È_ËÂÌÚ_28" x1="232.27" y1="593.87" x2="232.27" y2="556.7" gradientUnits="userSpaceOnUse"><stop offset="0" stop-color="#b89ecb"/><stop offset="1" stop-color="#968ac2"/></linearGradient><linearGradient id="_ÂÁ_Ï_ÌÌ_È_ËÂÌÚ_46-2" x1="306.53" y1="677.11" x2="322.23" y2="552.12" xlink:href="#_ÂÁ_Ï_ÌÌ_È_ËÂÌÚ_46"/><linearGradient id="_ÂÁ_Ï_ÌÌ_È_ËÂÌÚ_28-2" x1="319.69" y1="593.97" x2="319.69" y2="556.8" xlink:href="#_ÂÁ_Ï_ÌÌ_È_ËÂÌÚ_28"/><linearGradient id="_ÂÁ_Ï_ÌÌ_È_ËÂÌÚ_153" x1="232.27" y1="667.25" x2="232.27" y2="556.7" gradientUnits="userSpaceOnUse"><stop offset="0" stop-color="#976aad"/><stop offset="1" stop-color="#cdecfc"/></linearGradient><linearGradient id="_ÂÁ_Ï_ÌÌ_È_ËÂÌÚ_153-2" x1="319.69" y1="669.77" x2="319.69" y2="556.8" xlink:href="#_ÂÁ_Ï_ÌÌ_È_ËÂÌÚ_153"/><linearGradient id="_ÂÁ_Ï_ÌÌ_È_ËÂÌÚ_46-3" x1="127.06" y1="527.02" x2="147.81" y2="361.77" xlink:href="#_ÂÁ_Ï_ÌÌ_È_ËÂÌÚ_46"/><linearGradient id="_ÂÁ_Ï_ÌÌ_È_ËÂÌÚ_28-3" x1="79.06" y1="527.14" x2="79.06" y2="465.88" xlink:href="#_ÂÁ_Ï_ÌÌ_È_ËÂÌÚ_28"/><linearGradient id="_ÂÁ_Ï_ÌÌ_È_ËÂÌÚ_153-3" x1="135.24" y1="527.14" x2="135.24" y2="369.49" xlink:href="#_ÂÁ_Ï_ÌÌ_È_ËÂÌÚ_153"/><linearGradient id="_ÂÁ_Ï_ÌÌ_È_ËÂÌÚ_46-4" x1="45.1" y1="578.22" x2="57.52" y2="479.37" xlink:href="#_ÂÁ_Ï_ÌÌ_È_ËÂÌÚ_46"/><linearGradient id="_ÂÁ_Ï_ÌÌ_È_ËÂÌÚ_28-4" x1="57.23" y1="575.39" x2="57.23" y2="484.78" xlink:href="#_ÂÁ_Ï_ÌÌ_È_ËÂÌÚ_28"/><linearGradient id="_ÂÁ_Ï_ÌÌ_È_ËÂÌÚ_416" x1="56.52" y1="555.52" x2="56.52" y2="496.51" gradientUnits="userSpaceOnUse"><stop offset="0" stop-color="#90a3d3"/><stop offset="1" stop-color="#745fa9"/></linearGradient><linearGradient id="_ÂÁ_Ï_ÌÌ_È_ËÂÌÚ_46-5" x1="67.81" y1="557.74" x2="76.63" y2="487.53" xlink:href="#_ÂÁ_Ï_ÌÌ_È_ËÂÌÚ_46"/><linearGradient id="_ÂÁ_Ï_ÌÌ_È_ËÂÌÚ_46-6" x1="263" y1="591.32" x2="294.74" y2="338.62" xlink:href="#_ÂÁ_Ï_ÌÌ_È_ËÂÌÚ_46"/><linearGradient id="_ÂÁ_Ï_ÌÌ_È_ËÂÌÚ_153-4" x1="275.9" y1="591.76" x2="275.9" y2="388.44" xlink:href="#_ÂÁ_Ï_ÌÌ_È_ËÂÌÚ_153"/><linearGradient id="_ÂÁ_Ï_ÌÌ_È_ËÂÌÚ_28-5" x1="273.95" y1="587.62" x2="273.95" y2="427.49" xlink:href="#_ÂÁ_Ï_ÌÌ_È_ËÂÌÚ_28"/><radialGradient id="_ÂÁ_Ï_ÌÌ_È_ËÂÌÚ_91" cx="277.16" cy="566.91" r="122.19" gradientUnits="userSpaceOnUse"><stop offset="0" stop-color="#7ccbb5"/><stop offset="1" stop-color="#5ccaea"/></radialGradient><linearGradient id="_ÂÁ_Ï_ÌÌ_È_ËÂÌÚ_416-2" x1="272.39" y1="386.29" x2="272.39" y2="336.73" xlink:href="#_ÂÁ_Ï_ÌÌ_È_ËÂÌÚ_416"/><linearGradient id="_ÂÁ_Ï_ÌÌ_È_ËÂÌÚ_143" x1="277.84" y1="582.83" x2="277.84" y2="555.09" gradientUnits="userSpaceOnUse"><stop offset="0" stop-color="#d6e0f2"/><stop offset="1" stop-color="#010101"/></linearGradient><linearGradient id="_ÂÁ_Ï_ÌÌ_È_ËÂÌÚ_134" x1="209.15" y1="471.3" x2="348.4" y2="471.3" gradientUnits="userSpaceOnUse"><stop offset="0" stop-color="#010101"/><stop offset="1" stop-color="#d6e0f2"/></linearGradient><linearGradient id="_ÂÁ_Ï_ÌÌ_È_ËÂÌÚ_36" x1="330.08" y1="399.83" x2="362.42" y2="399.83" gradientUnits="userSpaceOnUse"><stop offset="0" stop-color="#7e77b8"/><stop offset="1" stop-color="#968ac2"/></linearGradient><linearGradient id="_ÂÁ_Ï_ÌÌ_È_ËÂÌÚ_264" x1="393.37" y1="205.26" x2="393.37" y2="90.34" gradientUnits="userSpaceOnUse"><stop offset="0" stop-color="#b8acd4"/><stop offset="1" stop-color="#e0d1e7"/></linearGradient><linearGradient id="_ÂÁ_Ï_ÌÌ_È_ËÂÌÚ_28-6" x1="401.71" y1="152.81" x2="401.71" y2="90.34" xlink:href="#_ÂÁ_Ï_ÌÌ_È_ËÂÌÚ_28"/><linearGradient id="_ÂÁ_Ï_ÌÌ_È_ËÂÌÚ_17" x1="417.24" y1="210.76" x2="417.24" y2="97.85" xlink:href="#_ÂÁ_Ï_ÌÌ_È_ËÂÌÚ_91"/><linearGradient id="_ÂÁ_Ï_ÌÌ_È_ËÂÌÚ_264-2" x1="489.24" y1="209.74" x2="489.24" y2="94.83" gradientTransform="matrix(-1, 0, 0, 1, 643.2, 0)" xlink:href="#_ÂÁ_Ï_ÌÌ_È_ËÂÌÚ_264"/><linearGradient id="_ÂÁ_Ï_ÌÌ_È_ËÂÌÚ_28-7" x1="497.58" y1="157.29" x2="497.58" y2="94.82" gradientTransform="matrix(-1, 0, 0, 1, 643.2, 0)" xlink:href="#_ÂÁ_Ï_ÌÌ_È_ËÂÌÚ_28"/><linearGradient id="_ÂÁ_Ï_ÌÌ_È_ËÂÌÚ_17-2" x1="513.03" y1="217.79" x2="513.03" y2="102.33" gradientTransform="matrix(-1, 0, 0, 1, 643.2, 0)" xlink:href="#_ÂÁ_Ï_ÌÌ_È_ËÂÌÚ_91"/><linearGradient id="_ÂÁ_Ï_ÌÌ_È_ËÂÌÚ_46-7" x1="263.37" y1="357" x2="298.42" y2="77.92" xlink:href="#_ÂÁ_Ï_ÌÌ_È_ËÂÌÚ_46"/><linearGradient id="_ÂÁ_Ï_ÌÌ_È_ËÂÌÚ_132" x1="274.66" y1="337.89" x2="274.66" y2="107.19" gradientUnits="userSpaceOnUse"><stop offset="0" stop-color="#2366b1"/><stop offset="1" stop-color="#2c2d72"/></linearGradient><linearGradient id="_ÂÁ_Ï_ÌÌ_È_ËÂÌÚ_54" x1="178.03" y1="158.78" x2="381.54" y2="158.78" gradientUnits="userSpaceOnUse"><stop offset="0" stop-color="#010101"/><stop offset="1" stop-color="#7594cc"/></linearGradient><linearGradient id="_ÂÁ_Ï_ÌÌ_È_ËÂÌÚ_54-2" x1="204.79" y1="321.54" x2="352.76" y2="321.54" xlink:href="#_ÂÁ_Ï_ÌÌ_È_ËÂÌÚ_54"/><linearGradient id="_ÂÁ_Ï_ÌÌ_È_ËÂÌÚ_126" x1="150.42" y1="276.77" x2="150.42" y2="201.29" gradientTransform="translate(24.99 6.86) rotate(3.92)" gradientUnits="userSpaceOnUse"><stop offset="0" stop-color="#010101"/><stop offset="1" stop-color="#5bcae8"/></linearGradient><linearGradient id="_ÂÁ_Ï_ÌÌ_È_ËÂÌÚ_416-3" x1="163.1" y1="332.05" x2="163.1" y2="296.67" xlink:href="#_ÂÁ_Ï_ÌÌ_È_ËÂÌÚ_416"/><linearGradient id="_ÂÁ_Ï_ÌÌ_È_ËÂÌÚ_28-8" x1="98.02" y1="312.51" x2="114.76" y2="179.18" xlink:href="#_ÂÁ_Ï_ÌÌ_È_ËÂÌÚ_28"/><linearGradient id="_ÂÁ_Ï_ÌÌ_È_ËÂÌÚ_8" x1="142.66" y1="258.29" x2="142.66" y2="220.71" gradientTransform="matrix(0.97, 0.23, -0.23, 0.97, 83.37, 29.18)" gradientUnits="userSpaceOnUse"><stop offset="0" stop-color="#dc208f"/><stop offset="1" stop-color="#ed247e"/></linearGradient><linearGradient id="_ÂÁ_Ï_ÌÌ_È_ËÂÌÚ_65" x1="165.36" y1="295.1" x2="165.36" y2="279.14" gradientUnits="userSpaceOnUse"><stop offset="0" stop-color="#ad55a1"/><stop offset="1" stop-color="#f171ab"/></linearGradient><linearGradient id="_ÂÁ_Ï_ÌÌ_È_ËÂÌÚ_134-2" x1="400.4" y1="126.04" x2="429.78" y2="126.04" xlink:href="#_ÂÁ_Ï_ÌÌ_È_ËÂÌÚ_134"/><linearGradient id="_ÂÁ_Ï_ÌÌ_È_ËÂÌÚ_416-4" x1="332.81" y1="345.68" x2="332.81" y2="276.99" xlink:href="#_ÂÁ_Ï_ÌÌ_È_ËÂÌÚ_416"/><linearGradient id="_ÂÁ_Ï_ÌÌ_È_ËÂÌÚ_143-2" x1="116.01" y1="123.99" x2="148.39" y2="123.99" xlink:href="#_ÂÁ_Ï_ÌÌ_È_ËÂÌÚ_143"/><linearGradient id="_ÂÁ_Ï_ÌÌ_È_ËÂÌÚ_46-8" x1="86.09" y1="236.27" x2="86.09" y2="198.96" xlink:href="#_ÂÁ_Ï_ÌÌ_È_ËÂÌÚ_46"/><radialGradient id="_ÂÁ_Ï_ÌÌ_È_ËÂÌÚ_91-2" cx="208.65" cy="212.36" r="39.11" xlink:href="#_ÂÁ_Ï_ÌÌ_È_ËÂÌÚ_91"/><linearGradient id="_ÂÁ_Ï_ÌÌ_È_ËÂÌÚ_132-2" x1="364.97" y1="318.73" x2="364.97" y2="137.39" xlink:href="#_ÂÁ_Ï_ÌÌ_È_ËÂÌÚ_132"/><linearGradient id="_ÂÁ_Ï_ÌÌ_È_ËÂÌÚ_46-9" x1="412.85" y1="290.18" x2="431.38" y2="142.64" xlink:href="#_ÂÁ_Ï_ÌÌ_È_ËÂÌÚ_46"/><radialGradient id="_ÂÁ_Ï_ÌÌ_È_ËÂÌÚ_91-3" cx="372.06" cy="239.44" r="57.42" xlink:href="#_ÂÁ_Ï_ÌÌ_È_ËÂÌÚ_91"/><linearGradient id="_ÂÁ_Ï_ÌÌ_È_ËÂÌÚ_8-2" x1="356.93" y1="331.7" x2="401.86" y2="140.84" gradientTransform="matrix(1, 0, 0, 1, 0, 0)" xlink:href="#_ÂÁ_Ï_ÌÌ_È_ËÂÌÚ_8"/><linearGradient id="_ÂÁ_Ï_ÌÌ_È_ËÂÌÚ_65-2" x1="356.93" y1="324.84" x2="401.86" y2="133.99" xlink:href="#_ÂÁ_Ï_ÌÌ_È_ËÂÌÚ_65"/><linearGradient id="_ÂÁ_Ï_ÌÌ_È_ËÂÌÚ_46-10" x1="405.29" y1="439.28" x2="416.85" y2="347.22" xlink:href="#_ÂÁ_Ï_ÌÌ_È_ËÂÌÚ_46"/><linearGradient id="_ÂÁ_Ï_ÌÌ_È_ËÂÌÚ_28-9" x1="477.52" y1="389.34" x2="477.52" y2="354.9" xlink:href="#_ÂÁ_Ï_ÌÌ_È_ËÂÌÚ_28"/><linearGradient id="_ÂÁ_Ï_ÌÌ_È_ËÂÌÚ_14" x1="467.65" y1="379.6" x2="473.61" y2="295.57" gradientUnits="userSpaceOnUse"><stop offset="0" stop-color="#8458a4"/><stop offset="1" stop-color="#ed247e"/></linearGradient><linearGradient id="_ÂÁ_Ï_ÌÌ_È_ËÂÌÚ_416-5" x1="463.24" y1="376.03" x2="463.24" y2="296.75" xlink:href="#_ÂÁ_Ï_ÌÌ_È_ËÂÌÚ_416"/><linearGradient id="_ÂÁ_Ï_ÌÌ_È_ËÂÌÚ_46-11" x1="436.42" y1="346.96" x2="439.17" y2="325.12" xlink:href="#_ÂÁ_Ï_ÌÌ_È_ËÂÌÚ_46"/><linearGradient id="_ÂÁ_Ï_ÌÌ_È_ËÂÌÚ_46-12" x1="475.46" y1="340.7" x2="482.58" y2="284" xlink:href="#_ÂÁ_Ï_ÌÌ_È_ËÂÌÚ_46"/><linearGradient id="_ÂÁ_Ï_ÌÌ_È_ËÂÌÚ_153-5" x1="413.6" y1="440.01" x2="413.6" y2="353.22" xlink:href="#_ÂÁ_Ï_ÌÌ_È_ËÂÌÚ_153"/><linearGradient id="_ÂÁ_Ï_ÌÌ_È_ËÂÌÚ_153-6" x1="437.92" y1="347.04" x2="437.92" y2="324.4" xlink:href="#_ÂÁ_Ï_ÌÌ_È_ËÂÌÚ_153"/><linearGradient id="_ÂÁ_Ï_ÌÌ_È_ËÂÌÚ_153-7" x1="478.25" y1="343.57" x2="478.25" y2="296.75" xlink:href="#_ÂÁ_Ï_ÌÌ_È_ËÂÌÚ_153"/><radialGradient id="_ÂÁ_Ï_ÌÌ_È_ËÂÌÚ_11" cx="362.37" cy="231.43" r="79.96" gradientTransform="translate(9.97 4.84) scale(1.02 0.98)" gradientUnits="userSpaceOnUse"><stop offset="0" stop-color="#010101"/><stop offset="0.24" stop-color="#030304"/><stop offset="0.38" stop-color="#080b0c"/><stop offset="0.5" stop-color="#11191a"/><stop offset="0.6" stop-color="#1d2b2e"/><stop offset="0.69" stop-color="#2e4448"/><stop offset="0.78" stop-color="#426269"/><stop offset="0.86" stop-color="#5a868f"/><stop offset="0.94" stop-color="#74afba"/><stop offset="1" stop-color="#8ed5e3"/></radialGradient><linearGradient id="_ÂÁ_Ï_ÌÌ_È_ËÂÌÚ_7" x1="307.1" y1="192.78" x2="451.69" y2="192.78" gradientUnits="userSpaceOnUse"><stop offset="0" stop-color="#7594cc"/><stop offset="1" stop-color="#010101"/></linearGradient></defs><title>Asset 2</title><g class="cls-1"><g id="Layer_2" data-name="Layer 2"><g id="Layer_1-2" data-name="Layer 1"><path class="cls-2" d="M44.75,562.73c35.15,73.75,374.28,63,459.73,5.74S400.14,29.75,170.48,39.8C2.81,47.13-45.45,373.44,44.75,562.73Z"/><path class="cls-2" d="M545.39,528.74c-14.53-2.36-23.58-79.47-6.39-94.37s52.48,19.12,52.48,45S570.6,532.86,545.39,528.74Z"/><path class="cls-2" d="M134.15,18.81c3.59,10.85-31.64,34-43.95,25.06s-5.1-36.58,6-42S128.94,3.12,134.15,18.81Z"/><path class="cls-3" d="M276,593.41v.1c0,2.62-.76,53.29-10.9,73.74-2.62,5.34-5.9,8.62-10,8.45-14.38-.6-47-61.27-59.92-95.71-3-7.88-4.87-14.38-5.27-18.46-.29-3,.17-4.67,1.63-4.7a65.83,65.83,0,0,1,9,.4l1.19.16c35.76,4.31,70.42,32.78,74,35.79A2.63,2.63,0,0,0,276,593.41Z"/><path class="cls-4" d="M276,593.41c-47.62,4.15-79.31-21-86.07-31.88-1.75-2.75-1.82-4.57-.1-4.7a50.59,50.59,0,0,1,10.71.4l1.19.16c31.55,4.77,70.09,32.94,74,35.79A2.63,2.63,0,0,0,276,593.41Z"/><path class="cls-5" d="M362.08,561.6c-.43,4.57-2.79,12.23-6.4,21.44-13.55,34.8-44.8,92.16-58.82,92.76-3.42.13-6.27-2.12-8.65-6-11.67-19-12.23-76.26-12.23-76.26a2.63,2.63,0,0,0,.3-.23c3.58-3,38.34-31.61,74.16-35.82.3,0,.63-.07,1-.13a66.49,66.49,0,0,1,9-.4C361.88,557,362.37,558.65,362.08,561.6Z"/><path class="cls-6" d="M362.08,561.6c-6.63,10.77-38.38,36.09-86.1,31.91a2.63,2.63,0,0,0,.3-.23c3.87-2.88,42.58-31.12,74.16-35.82.3,0,.63-.07,1-.13a50.45,50.45,0,0,1,10.7-.4C363.87,557.06,363.8,558.85,362.08,561.6Z"/><path class="cls-7" d="M276,593.41v.1c0,2.62-.76,53.29-10.9,73.74,0,0-2.82-53.55-17.07-65.68S195.18,580,195.18,580c-3-7.88-4.87-14.38-5.27-18.46-1.75-2.75-1.82-4.57-.1-4.7a50.59,50.59,0,0,1,10.71.4l1.19.16c35.76,4.31,70.42,32.78,74,35.79A2.63,2.63,0,0,0,276,593.41Z"/><path class="cls-8" d="M362.08,561.6c-.43,4.57-2.79,12.23-6.4,21.44-6.73,1.43-42.32,9.68-54.91,31.49-10.54,18.19-12.33,43.71-12.56,55.24-11.67-19-12.23-76.26-12.23-76.26a2.63,2.63,0,0,0,.3-.23c3.58-3,38.34-31.61,74.16-35.82.3,0,.63-.07,1-.13a50.45,50.45,0,0,1,10.7-.4C363.87,557.06,363.8,558.85,362.08,561.6Z"/><path class="cls-9" d="M208.47,407.3a186.4,186.4,0,0,1-6.39,33.17,134.06,134.06,0,0,1-9.45,11.8C177,470,142.16,503.34,88.34,520.08c-1.29.46-2.58.82-3.91,1.22-8.68,2.52-24.62-23.53-16.37-45.7a32.69,32.69,0,0,1,3-6.19c3.42-5.51,10.21-13,19.23-21.55,23.49-22.27,62.23-51.23,96.43-68.53h0a192.25,192.25,0,0,1,22.5-9.84A216.56,216.56,0,0,1,208.47,407.3Z"/><path class="cls-10" d="M88.34,520.08a19.27,19.27,0,0,1-3.15,3c-12.92,9.61-31.88,4-21.41-36a35.78,35.78,0,0,1,4.28-11.44c2.78-4.64,7.29-9,14.38-9.67C100.14,464.33,102.13,504.37,88.34,520.08Z"/><path class="cls-11" d="M208.47,407.3l-15.84,45C177,470,142.16,503.34,88.34,520.08a19.27,19.27,0,0,1-3.15,3c-12.92,9.61-31.88,4-21.41-36a35.78,35.78,0,0,1,4.28-11.44,32.69,32.69,0,0,1,3-6.19c3.42-5.51,10.21-13,19.23-21.55-.67,1.2-5.27,10.38,4.5,13.89,10.47,3.74,65.72-9.41,90-35.43s23.5-50.24,2-47a192.25,192.25,0,0,1,22.5-9.84A216.56,216.56,0,0,1,208.47,407.3Z"/><path class="cls-12" d="M79,482.08c-13.66-2.48-55.1,27.54-68.3,88,0,0,.91,4.86,13.2,5.3s33.36-22.07,47.64-35.32S101.72,486.2,79,482.08Z"/><path class="cls-13" d="M23.86,575.39s21.48-32,25.78-40c0,0,8.16-39.74,21-47.67,12.53-7.75,17.06.93,19.76,10.82S72.19,568.32,23.86,575.39Z"/><path class="cls-14" d="M48.61,541.89s5.14,11.77,11.68,13.63c0,0-5.5-38.58,4.14-59A118.81,118.81,0,0,0,48.61,541.89Z"/><path class="cls-15" d="M69.85,490.19s13.26-9.27,20.52,8.39a162.07,162.07,0,0,1-18.63,58s-8.26,2.36-11.45-1.1C53.2,547.84,55.28,500.35,69.85,490.19Z"/><path class="cls-16" d="M363.78,529.66c-6.31,37.26-39.67,62.1-87.51,62.1-41.63,0-76.9-15.52-86.22-49.7s-5.71-97.31,6.72-136.65a127.14,127.14,0,0,1,6.7-16.91l0-.06a117.37,117.37,0,0,1,7.87-13.85.06.06,0,0,0,0,0c15.19-22.87,37.43-37.81,62.56-37.81,26.17,0,46.2,10.76,59.83,26.69a87.32,87.32,0,0,1,14.86,25,247.6,247.6,0,0,1,10.27,32.92,2,2,0,0,0,.06.33C367.57,457.4,369.4,496.38,363.78,529.66Z"/><path class="cls-17" d="M363.78,529.66c-6.31,37.26-39.67,62.1-87.51,62.1-41.63,0-76.9-15.52-86.22-49.7s-5.71-97.31,6.72-136.65a127.14,127.14,0,0,1,6.7-16.91l0-.06S178.31,472,198.44,525.15s114,52.07,145.69,16.72c30.22-33.63,16.26-112.64,14.84-120.2C367.57,457.4,369.4,496.38,363.78,529.66Z"/><path class="cls-18" d="M191.84,507.55c7.12-50,47.24-83.91,91.79-79.7,48,4.53,73.85,50.38,73.16,89.72s-29.44,70-81,70S185.18,554.32,191.84,507.55Z"/><path class="cls-19" d="M192.29,511.69c7.12-50,47.24-83.91,91.79-79.7,48,4.53,73.85,50.38,73.16,89.72s-29.44,70-81,70S185.63,558.46,192.29,511.69Z"/><path class="cls-20" d="M333.78,363.42c-10.19,16-66.28,25.29-98.7,22.33-28.22-2.58-23.94-10.2-23.72-11.16a.06.06,0,0,0,0,0c15.19-22.87,37.43-37.81,62.56-37.81C300.12,336.73,320.15,347.49,333.78,363.42Z"/><path class="cls-21" d="M313.84,391.12c-2.6.86-2.73,21.89,0,25.28s7.11,2.34,8.57-2.61S317.79,389.82,313.84,391.12Z"/><path class="cls-21" d="M318.66,422c-2.17.51-2.43,5.73-1.42,7.55s4.78,1.44,5.4-.78S320.85,421.48,318.66,422Z"/><path class="cls-22" d="M220.5,562.62s11.51,20,54.38,20.21,60.31-25.36,60.31-25.36-19.78,12.89-48.07,5.15S230.86,550.53,220.5,562.62Z"/><path class="cls-23" d="M209.32,480c8.47,13.51,43.31,6.32,82.58,10.15s46,16.61,54.24,14-4.8-61.7-63.46-65.71S207.22,476.59,209.32,480Z"/><path class="cls-24" d="M336.88,367.28a25.21,25.21,0,0,0-6.8-5.77s10.8,54.4,32.34,76.63C362.42,438.14,353.06,386.86,336.88,367.28Z"/><path class="cls-25" d="M360.62,111.33s20.73-17.88,46.09-21c0,0,7.77,3.8,16.74,31.75s-7.59,83.17-7.59,83.17Z"/><path class="cls-26" d="M406.71,90.34s-20.53,22-20.53,57.46l7.94,5L417.24,105S409.57,89.93,406.71,90.34Z"/><path class="cls-27" d="M393.37,150.39s-5.46-30.28,14.47-52.54c0,0,22.51,10.61,31.83,50s-14.93,63-14.93,63Z"/><path class="cls-21" d="M381.78,99.16c-3.83,2.07-3.52,6.2,4.41,5.16s12.24-7.25,11.38-8.45S386.08,96.84,381.78,99.16Z"/><path class="cls-28" d="M186.72,115.82s-20.73-17.89-46.1-21c0,0-7.77,3.79-16.74,31.74s7.59,83.17,7.59,83.17Z"/><path class="cls-29" d="M140.62,94.83s20.53,22,20.53,57.45l-7.94,5-23.12-47.86S137.76,94.41,140.62,94.83Z"/><path class="cls-30" d="M154,154.87s5.46-30.28-14.47-52.54c0,0-22.52,10.61-31.84,50s17.54,65.51,17.54,65.51Z"/><path class="cls-21" d="M165.55,103.64c3.83,2.07,3.52,6.2-4.41,5.16s-12.24-7.24-11.38-8.45S161.25,101.32,165.55,103.64Z"/><path class="cls-31" d="M128.48,307.34c31.75,73.25,269.39,50.41,297.79-9.76C457.32,231.77,385.92,69.13,272,76.73,175.83,83.14,87.67,213.19,128.48,307.34Z"/><path class="cls-32" d="M141.59,297C172,357.08,379.4,347.16,409.7,291.93c25.73-46.9-35-189.7-139.25-184.61S112.45,239.35,141.59,297Z"/><path class="cls-21" d="M305.6,90.34c-2.17,2.58,23,13.53,26.4,12S312.84,81.69,305.6,90.34Z"/><path class="cls-33" d="M178.17,167.49c-2.38,14.3,24.73,12.68,68.09,11.24,52.11-1.72,104.47,43.14,134.93,10.94,5-5.31-44.87-75-105.08-73.41S180.24,155.06,178.17,167.49Z"/><path class="cls-34" d="M205,316.8c-2.75,10.37,18.94,20.74,72.29,18.13,64.5-3.16,78.2-16.67,75-20.41-1.91-2.25-21.23,9.92-74.2-1.69C243.16,305.16,207.92,305.89,205,316.8Z"/><path class="cls-35" d="M147.38,284.56a140.34,140.34,0,0,1,.4-35.21c2.65-20.19,8.07-33.22,11.3-31.39s2.73,21.59,4.63,41.07c1.49,15.16,4.4,29.39,4.4,29.39S154.17,301.75,147.38,284.56Z"/><path class="cls-36" d="M151.84,332.05s3.2-3.47,20.42-13.59c11.54-6.79,23.66-14.81,25.38-17.75,2.55-6.93-49.4-2.84-49.4-2.84l-19.76,9.47S136.33,322.86,151.84,332.05Z"/><path class="cls-37" d="M112.13,178.85s13.41,8.63,4.61,28.61c0,0-62.62,34.1-59,71.27,3,31,89.55,16,89.55,16l3.11,10.35s-73.5,14.38-98.87-2.9c0,0-8.62-20.49,12.77-57.41A430,430,0,0,1,112.13,178.85Z"/><path class="cls-38" d="M136.34,291.85c-7.88,8.92,8.85,18.68,22.61,20.18,15.43,1.68,42.85-4.43,41.19-20S154.83,270.94,136.34,291.85Z"/><path class="cls-39" d="M137.39,293.49c-.47,2.55,54.63,3.16,55.92-6.58S141,273.83,137.39,293.49Z"/><path class="cls-40" d="M426.12,115.61s-7.31-9-17.26-6.64-10.61,33.75-4.66,34.53,8.48-17.34,13-20.19,12.54-1.74,12.54-1.74Z"/><path class="cls-41" d="M335.19,345.68s-34.07-34.36-45-68.69l85.17,56.1S346.46,343.24,335.19,345.68Z"/><path class="cls-42" d="M116,129s3.84-4.35,12.47-2.94,13.6,19.12,18,17.34,1.17-30.46-10.49-38.9C136,104.48,121,117.32,116,129Z"/><path class="cls-43" d="M100.11,199s-29.95,34.78-28,37.2S102,202.47,100.11,199Z"/><path class="cls-44" d="M180.2,210.76s27.56-4.1,54.42,4.09c4,1.22-8.38-13.27-27.21-15.89S178.94,204.24,180.2,210.76Z"/><path class="cls-45" d="M246.13,269.18c4.71-14.24,22.6-13.61,26.26-.84,3.89,13.59-11.82,29.23-18.94,26.76S242.65,279.71,246.13,269.18Z"/><path class="cls-46" d="M293.22,251.51c-16.8-46.67,27.37-106.52,95.32-114.12,0,0,64.43,41.46,49.52,156C438.06,293.35,336.76,372.39,293.22,251.51Z"/><path class="cls-47" d="M388.54,137.39s23,.19,50,22.67,39.75,88.38-.44,133.29C438.06,293.35,456.05,201.33,388.54,137.39Z"/><path class="cls-48" d="M332.34,236.27c2,21.31,65.34,19.3,75.58,0,8.22-15.48-15.65-66-40.9-62.36S329.59,206.29,332.34,236.27Z"/><path class="cls-49" d="M379.4,138.26a98,98,0,1,0,98,98A98,98,0,0,0,379.4,138.26Zm0,179.62A81.61,81.61,0,1,1,461,236.27,81.61,81.61,0,0,1,379.4,317.88Z"/><path class="cls-50" d="M379.4,131.4a98,98,0,1,0,98,98A98,98,0,0,0,379.4,131.4Zm0,179.63A81.62,81.62,0,1,1,461,229.41,81.62,81.62,0,0,1,379.4,311Z"/><path class="cls-51" d="M488.51,381.48s-21.21,40.1-48.22,53.46-68-2.72-81.33-13.29c-18.13-14.42-24.79-64.13-17.13-64.13,6.92,0,13.72,5.27,35.72,8.06h.07c5.93.76,13,1.32,21.41,1.56,20,.53,38.54-4.21,50.57-8.32a133.07,133.07,0,0,0,14.08-5.6C479.66,353.12,488.51,381.48,488.51,381.48Z"/><path class="cls-52" d="M461,354.9s-1.95,29.49,9.39,33.54,18.1-6.95,18.1-6.95l5.65-12Z"/><path class="cls-53" d="M426.11,319.11s40.44,44.38,68.07,62.38c0,0,17.17-2.05,20.51-19l-59-68.16Z"/><path class="cls-54" d="M498.35,343.57s-37.79-29-44.7-31.27a51.87,51.87,0,0,0-7.84,15.13c-2.4,8.15,40.64,48.6,40.64,48.6s-40-32.46-58.31-54.72c0,0,20.22-14.35,29.61-24.56Z"/><path class="cls-55" d="M449.25,343.72c-.53,2.35-17,6.93-21.54-1.79a18.33,18.33,0,0,1-1.13-2.62c-2.59-7.52,1.06-13.48,4.47-15.21l.07.07.23.23C433.7,326.56,449.71,341.53,449.25,343.72Z"/><path class="cls-56" d="M498.35,343.57l-8.05-9.28s-27.08-13.45-32.55-37.54a.13.13,0,0,1,0-.07s6.3-12.86,19.68-13.26c5.34-.16,10.14,6.86,13.82,16.34h0C496.82,314.14,499.87,334.16,498.35,343.57Z"/><path class="cls-57" d="M488.51,381.48s-21.21,40.1-48.22,53.46-68-2.72-81.33-13.29c-18.13-14.42-24.79-64.13-17.13-64.13,6.92,0,13.72,5.27,35.72,8.06-1.36-.1-20.11-1.39-23.43,3.91-3.44,5.5,34.4,60.74,72,45.37s30-55.91,23.57-56h-.07a133.07,133.07,0,0,0,14.08-5.6C479.66,353.12,488.51,381.48,488.51,381.48Z"/><path class="cls-58" d="M449.25,343.72c-.53,2.35-17,6.93-21.54-1.79a18.33,18.33,0,0,1-1.13-2.62c3.61,4.54,9.21,3.75,10.9-1.26,1.63-4.83-4.7-12.09-6.13-13.65C433.7,326.56,449.71,341.53,449.25,343.72Z"/><path class="cls-59" d="M498.35,343.57l-8.05-9.28s-27.08-13.45-32.55-37.54c.66,1.29,13.69,21.54,27.61,23.41,10.26,1.38,6.19-19,5.86-20.4h0C496.82,314.14,499.87,334.16,498.35,343.57Z"/><path class="cls-21" d="M64.43,511.7a26.45,26.45,0,0,0-3.68,17A24.73,24.73,0,0,0,64.43,511.7Z"/><path class="cls-21" d="M28.24,555.09A21.82,21.82,0,0,1,35.78,542S32.64,553.11,28.24,555.09Z"/><path class="cls-21" d="M110.5,440c-1-1.75,19-21,24.74-21.64s-2,2-6.76,9.12S112.38,443.18,110.5,440Z"/><path class="cls-21" d="M140.64,414.23c-2.08-2.37,9.1-6.59,9.1-6.59S142.84,416.74,140.64,414.23Z"/><path class="cls-21" d="M379.4,379.28c-.78,4.6,22.66,4.6,22.24,0S380.17,374.67,379.4,379.28Z"/><path class="cls-21" d="M225.59,616.47c-3.12,1.45,2.65,17.24,6.95,16.9S229.23,614.78,225.59,616.47Z"/><ellipse class="cls-60" cx="379.37" cy="232.4" rx="81.51" ry="78.62"/><path class="cls-61" d="M307.11,213c.7,14.5,24.23,19.69,70-2.87,36.35-17.92,71.4,2.54,74.41-3.06s-35.08-51.83-76.41-46.62S306.48,200.09,307.11,213Z"/></g></g></g></svg>