<svg xmlns="http://www.w3.org/2000/svg" viewBox="0 0 282.62 60.03"><defs><style>.cls-1{fill:#fff;}</style></defs><title>Asset 1</title><g id="Layer_2" data-name="Layer 2"><g id="Layer_1-2" data-name="Layer 1"><g id="Layer_1-2-2" data-name="Layer 1-2"><path class="cls-1" d="M41.36,30.64a9.68,9.68,0,0,0-2.89-6.87,10,10,0,0,0-7-2.84H17.29a10,10,0,0,0-7,2.84,9.59,9.59,0,0,0-.18,13.57l.18.18a10,10,0,0,0,7,2.84H31.47a10.07,10.07,0,0,0,7-2.84A9.72,9.72,0,0,0,41.36,30.64ZM16.17,35.11A4.54,4.54,0,0,1,12,32.35a4.47,4.47,0,0,1,2.45-5.83,4.33,4.33,0,0,1,.87-.25,4.52,4.52,0,0,1,2.62.25,4.57,4.57,0,0,1,2,1.64,4.4,4.4,0,0,1-.56,5.64,4.5,4.5,0,0,1-1.48,1A4.74,4.74,0,0,1,16.17,35.11Zm16.41,0a4.54,4.54,0,0,1-4.2-2.76,4.47,4.47,0,0,1,2.45-5.83,4.33,4.33,0,0,1,.87-.25,4.52,4.52,0,0,1,2.62.25,4.57,4.57,0,0,1,2,1.64,4.46,4.46,0,0,1,.77,2.48,4.52,4.52,0,0,1-1.33,3.16,4.61,4.61,0,0,1-1.48,1,4.84,4.84,0,0,1-1.72.31Z"/><path class="cls-1" d="M41.39,47.68A23.48,23.48,0,0,0,44,16.6a24.13,24.13,0,0,0-8.72-7.26c.41-.69,1.28-2.17,2-3.5a3,3,0,0,0,.6.06,3,3,0,0,0,1.89-.66,3,3,0,0,0,1-1.68,2.93,2.93,0,0,0-.26-1.95A2.92,2.92,0,0,0,39.18.26a3.06,3.06,0,0,0-2-.16,3,3,0,0,0-1.62,1.11A2.91,2.91,0,0,0,35,3.1a3,3,0,0,0,.77,1.82c-1,1.58-1.89,3.18-2.19,3.65a24.65,24.65,0,0,0-18.38,0L13,4.92A3,3,0,0,0,13.8,3.1a2.93,2.93,0,0,0-2.24-3,3.06,3.06,0,0,0-2,.16,3,3,0,0,0-1.7,3.35,3,3,0,0,0,1,1.67,3,3,0,0,0,1.89.66,3,3,0,0,0,.59-.06c.78,1.33,1.64,2.8,2.06,3.5A24,24,0,0,0,4.56,16.8a23.42,23.42,0,0,0-3.11,22,23.87,23.87,0,0,0,6.44,9.5l-1,3.62a1.52,1.52,0,0,0,.6,1.77A1.65,1.65,0,0,0,8.4,54a1.74,1.74,0,0,0,.94-.24l3.39-2.06a24.66,24.66,0,0,0,18.82,1.77l7.24,6a2.25,2.25,0,0,0,2.5.27,2.14,2.14,0,0,0,1.16-2.14Zm-1,10.16v.07h0a.08.08,0,0,1-.07,0,.11.11,0,0,1-.08,0l-8-6.83-.57.19a22.57,22.57,0,0,1-18.21-1.72l-.54-.31L9.28,51.4l1.06-3.83-.5-.42a21.8,21.8,0,0,1-7-11,21.51,21.51,0,0,1,.6-12.92,21.77,21.77,0,0,1,8-10.32,22.52,22.52,0,0,1,25.12-.48,21.85,21.85,0,0,1,8.37,10A21.49,21.49,0,0,1,46.09,35.3a21.82,21.82,0,0,1-6.53,11.26l-.38.34Z"/><path class="cls-1" d="M72.37,33.37a6.18,6.18,0,0,0-.9-3.53,3.09,3.09,0,0,0-2.78-1.34,5.13,5.13,0,0,0-1.65.26,5.06,5.06,0,0,0-1.22.58V38.1c.33.07.66.13,1,.17s.88.06,1.45.06a3.75,3.75,0,0,0,3-1.3A5.66,5.66,0,0,0,72.37,33.37Zm3.6.06a9.79,9.79,0,0,1-.55,3.31,7,7,0,0,1-1.54,2.49,6.61,6.61,0,0,1-2.41,1.6,9.09,9.09,0,0,1-3.22.55,21.77,21.77,0,0,1-3.33-.26,23,23,0,0,1-2.61-.62V19.08l3.51-.58v7.86a7,7,0,0,1,1.48-.58,7.23,7.23,0,0,1,4.81.31,5.55,5.55,0,0,1,2.12,1.6,7.4,7.4,0,0,1,1.27,2.52A10.64,10.64,0,0,1,76,33.43Zm17.33,0a9.92,9.92,0,0,1-.52,3.28,7.29,7.29,0,0,1-1.48,2.52A6.74,6.74,0,0,1,89,40.86a7.87,7.87,0,0,1-5.92,0,6.76,6.76,0,0,1-2.29-1.63,7.5,7.5,0,0,1-1.5-2.52,9.68,9.68,0,0,1-.53-3.28,9.2,9.2,0,0,1,.53-3.25,7.5,7.5,0,0,1,1.5-2.52,6.63,6.63,0,0,1,2.32-1.59,7.63,7.63,0,0,1,5.86,0,6.38,6.38,0,0,1,2.32,1.59,7.45,7.45,0,0,1,1.48,2.52,9.05,9.05,0,0,1,.55,3.22Zm-3.59,0a5.82,5.82,0,0,0-1-3.56,3.38,3.38,0,0,0-5.41,0,5.84,5.84,0,0,0-1,3.56,6.09,6.09,0,0,0,1,3.63A3.19,3.19,0,0,0,86,38.36,3.14,3.14,0,0,0,88.72,37a6.06,6.06,0,0,0,1-3.63Zm7-11.57,3.51-.58v4.58h5.4v2.93h-5.4V35a4.49,4.49,0,0,0,.58,2.61,2.33,2.33,0,0,0,2,.78,6.46,6.46,0,0,0,1.69-.2c.4-.11.79-.23,1.18-.38l.58,2.79a12.84,12.84,0,0,1-1.59.52,8.68,8.68,0,0,1-2.32.29,7.66,7.66,0,0,1-2.73-.44A4.15,4.15,0,0,1,97.9,39.7a5.17,5.17,0,0,1-.9-2,12.94,12.94,0,0,1-.26-2.7Zm21.4,19.61a11.23,11.23,0,0,1-4.06-.7,8,8,0,0,1-3-2,9.31,9.31,0,0,1-1.91-3.31,13.52,13.52,0,0,1-.67-4.46,12.15,12.15,0,0,1,.75-4.47,9.6,9.6,0,0,1,2.12-3.28,8.73,8.73,0,0,1,3.13-2.05,10.39,10.39,0,0,1,3.86-.7,11.51,11.51,0,0,1,2.26.2,13.36,13.36,0,0,1,1.77.41,6.47,6.47,0,0,1,1.2.39l.69.38-1.07,3a8.1,8.1,0,0,0-2-.82,9.14,9.14,0,0,0-2.79-.4,6.29,6.29,0,0,0-2.43.46,5,5,0,0,0-2,1.34,6.11,6.11,0,0,0-1.28,2.26,9.68,9.68,0,0,0-.46,3.16,11.57,11.57,0,0,0,.34,2.93,6.79,6.79,0,0,0,1.14,2.32,5.32,5.32,0,0,0,1.91,1.51,6.94,6.94,0,0,0,2.78.52,10.9,10.9,0,0,0,3.16-.38,14.57,14.57,0,0,0,1.89-.75l1,3a5.36,5.36,0,0,1-1,.47c-.39.15-.85.31-1.39.46a14.61,14.61,0,0,1-1.83.32,16.18,16.18,0,0,1-2.08.16Zm22.74-8a9.92,9.92,0,0,1-.52,3.28,7.29,7.29,0,0,1-1.48,2.52,6.76,6.76,0,0,1-2.29,1.56,7.87,7.87,0,0,1-5.92,0,6.76,6.76,0,0,1-2.29-1.63,7.37,7.37,0,0,1-1.51-2.52,9.92,9.92,0,0,1-.52-3.28,9.66,9.66,0,0,1,.52-3.25,7.53,7.53,0,0,1,1.51-2.52A6.63,6.63,0,0,1,130.67,26a7.63,7.63,0,0,1,5.86,0,6.38,6.38,0,0,1,2.32,1.59,7.45,7.45,0,0,1,1.48,2.52,9,9,0,0,1,.55,3.25Zm-3.6,0a5.82,5.82,0,0,0-1-3.56,3.13,3.13,0,0,0-2.69-1.41,3.17,3.17,0,0,0-2.72,1.34,5.84,5.84,0,0,0-1,3.56,6.09,6.09,0,0,0,1,3.63,3.19,3.19,0,0,0,2.72,1.33,3.14,3.14,0,0,0,2.7-1.33,6,6,0,0,0,1-3.63Zm15.86-.37a7.22,7.22,0,0,0-.55-3.5,2.29,2.29,0,0,0-2.24-1.1,8.93,8.93,0,0,0-1.27.09l-1.05.14V41h-3.5V26.33a24,24,0,0,1,6.11-.82,6.78,6.78,0,0,1,2.56.41A5.06,5.06,0,0,1,154.85,27a6,6,0,0,1,.81-.49,7.09,7.09,0,0,1,1.1-.46,7.87,7.87,0,0,1,1.28-.38,6.43,6.43,0,0,1,1.39-.15,6.73,6.73,0,0,1,2.9.53,4,4,0,0,1,1.8,1.42,5.32,5.32,0,0,1,.9,2.2,14.69,14.69,0,0,1,.26,2.81V41h-3.51V33a7.47,7.47,0,0,0-.58-3.43A2.31,2.31,0,0,0,159,28.5a4.58,4.58,0,0,0-1.6.29,4.64,4.64,0,0,0-1.13.52,9,9,0,0,1,.32,1.54,16.9,16.9,0,0,1,.09,1.74V41h-3.51Zm25.09,0a7.2,7.2,0,0,0-.61-3.43,2.29,2.29,0,0,0-2.2-1.07,9.07,9.07,0,0,0-1.28.09l-1,.14V41h-3.55V26.33a19.64,19.64,0,0,1,2.64-.55,20.25,20.25,0,0,1,3.48-.27,6.72,6.72,0,0,1,2.55.41A5.06,5.06,0,0,1,179.91,27a6,6,0,0,1,.81-.49,7.09,7.09,0,0,1,1.1-.46,7.87,7.87,0,0,1,1.28-.38,6.53,6.53,0,0,1,1.46-.16,6.73,6.73,0,0,1,2.9.53,4,4,0,0,1,1.8,1.42,5.32,5.32,0,0,1,.9,2.2,14.69,14.69,0,0,1,.26,2.81V41h-3.51V33a7.47,7.47,0,0,0-.58-3.43,2.32,2.32,0,0,0-2.27-1.07,4.58,4.58,0,0,0-1.6.29,4.64,4.64,0,0,0-1.13.52,8.11,8.11,0,0,1,.32,1.54,16.9,16.9,0,0,1,.09,1.74V41h-3.51Zm15.61.46a9.52,9.52,0,0,1,.58-3.51A7.07,7.07,0,0,1,196,27.5,6.2,6.2,0,0,1,198.27,26a6.83,6.83,0,0,1,2.61-.52,6.19,6.19,0,0,1,4.88,1.94c1.18,1.29,1.77,3.23,1.77,5.8v.67q0,.32,0,.63h-10a4.08,4.08,0,0,0,1.28,2.85,5,5,0,0,0,3.33,1,11.34,11.34,0,0,0,2.32-.23,10.18,10.18,0,0,0,1.69-.49l.41,2.86c-.27.12-.54.23-.81.32s-.72.18-1.16.26-.89.17-1.39.23a13.25,13.25,0,0,1-1.54.09,9.79,9.79,0,0,1-3.48-.58,6.45,6.45,0,0,1-3.86-4.15,10.08,10.08,0,0,1-.48-3.17ZM204,32a4.49,4.49,0,0,0-.21-1.36,3,3,0,0,0-.61-1.13,2.39,2.39,0,0,0-.95-.75,2.73,2.73,0,0,0-1.34-.29,3,3,0,0,0-1.42.31,3.33,3.33,0,0,0-1,.79,3.84,3.84,0,0,0-.64,1.13,6.5,6.5,0,0,0-.32,1.3Zm15.87-2.93a10.3,10.3,0,0,0-1.22-.29,8.17,8.17,0,0,0-1.77-.17,6.54,6.54,0,0,0-1.25.12,5.45,5.45,0,0,0-.89.2V41h-3.51V26.56a16.8,16.8,0,0,1,2.52-.7,15.11,15.11,0,0,1,3.42-.36,5.52,5.52,0,0,1,.81.06,7.4,7.4,0,0,1,.93.12,5.7,5.7,0,0,1,.9.17,4.5,4.5,0,0,1,.7.18Zm2.21,4.44a9.22,9.22,0,0,1,.52-3.13,7.42,7.42,0,0,1,1.48-2.55,6.66,6.66,0,0,1,2.38-1.68,7.63,7.63,0,0,1,3.13-.61,10.66,10.66,0,0,1,4.06.78l-.75,2.87a7.7,7.7,0,0,0-1.39-.43,6.9,6.9,0,0,0-1.63-.18,3.81,3.81,0,0,0-3.13,1.31,5.4,5.4,0,0,0-1.07,3.62,5.83,5.83,0,0,0,1,3.6,4.08,4.08,0,0,0,3.42,1.3,9.65,9.65,0,0,0,1.77-.17,9,9,0,0,0,1.51-.44l.49,2.9a7.29,7.29,0,0,1-1.76.53,13,13,0,0,1-2.41.23,9.3,9.3,0,0,1-3.39-.58,6.36,6.36,0,0,1-3.74-4.25,10.48,10.48,0,0,1-.46-3.19Zm13.68.06a9.52,9.52,0,0,1,.58-3.51A7.14,7.14,0,0,1,238,27.5,6.08,6.08,0,0,1,240.22,26a6.65,6.65,0,0,1,2.61-.52,6.17,6.17,0,0,1,4.87,1.94c1.18,1.29,1.77,3.23,1.77,5.8v.67q0,.32,0,.63h-10a4.07,4.07,0,0,0,1.27,2.85,5.06,5.06,0,0,0,3.34,1,11.34,11.34,0,0,0,2.32-.23,10.07,10.07,0,0,0,1.68-.49l.46,2.87c-.27.12-.54.23-.81.32s-.72.18-1.16.26-.89.17-1.39.23a13.25,13.25,0,0,1-1.54.09,9.79,9.79,0,0,1-3.48-.58,6.59,6.59,0,0,1-2.43-1.66,6.75,6.75,0,0,1-1.43-2.49,10.14,10.14,0,0,1-.52-3.18ZM245.93,32a4.81,4.81,0,0,0-.2-1.36,3.18,3.18,0,0,0-.61-1.13,2.31,2.31,0,0,0-1-.75,2.69,2.69,0,0,0-1.33-.29,2.92,2.92,0,0,0-1.42.31,3.18,3.18,0,0,0-1,.79,3.84,3.84,0,0,0-.64,1.13,6.5,6.5,0,0,0-.32,1.3Z"/><path class="cls-1" d="M257.13,39.09a2.2,2.2,0,0,1-.69,1.65,2.43,2.43,0,0,1-3.28,0,2.33,2.33,0,0,1,3.28-3.31A2.17,2.17,0,0,1,257.13,39.09Zm7.3,1.91h-3.51V25.83h3.51Zm.38-19.6a2,2,0,0,1-.64,1.56,2.17,2.17,0,0,1-1.51.58,2.24,2.24,0,0,1-1.54-.58,2,2,0,0,1-.63-1.56,2.05,2.05,0,0,1,.63-1.6,2.19,2.19,0,0,1,1.54-.58,2.17,2.17,0,0,1,1.51.58A2.08,2.08,0,0,1,264.81,21.4Zm17.81,12a9.92,9.92,0,0,1-.52,3.28,7.29,7.29,0,0,1-1.48,2.52,6.74,6.74,0,0,1-2.32,1.63,7.85,7.85,0,0,1-5.91,0,6.53,6.53,0,0,1-2.29-1.63,7.29,7.29,0,0,1-1.54-2.52A9.67,9.67,0,0,1,268,33.4a9.42,9.42,0,0,1,.52-3.25,7.37,7.37,0,0,1,1.51-2.52A6.5,6.5,0,0,1,272.39,26a7.7,7.7,0,0,1,5.85,0,6.18,6.18,0,0,1,2.32,1.59A7.45,7.45,0,0,1,282,30.15,9,9,0,0,1,282.62,33.4Zm-3.59,0a5.82,5.82,0,0,0-1-3.56,3.41,3.41,0,0,0-5.42,0,5.84,5.84,0,0,0-1,3.56,6.09,6.09,0,0,0,1,3.63,3.19,3.19,0,0,0,2.72,1.33A3.14,3.14,0,0,0,278,37,6.07,6.07,0,0,0,279,33.4Z"/></g></g></g></svg>